<?xml version="1.0" standalone="no"?>
<!DOCTYPE svg PUBLIC "-//W3C//DTD SVG 1.1//EN" "http://www.w3.org/Graphics/SVG/1.1/DTD/svg11.dtd" >
<svg xmlns="http://www.w3.org/2000/svg" xmlns:xlink="http://www.w3.org/1999/xlink" version="1.1">
<metadata></metadata>
<defs>
<font id="klimaregular_italic" horiz-adv-x="471" >
<font-face units-per-em="2048" ascent="1565" descent="-483" />
<missing-glyph horiz-adv-x="409" />
<glyph horiz-adv-x="0" />
<glyph horiz-adv-x="682" />
<glyph horiz-adv-x="0" />
<glyph unicode="&#x9;" horiz-adv-x="600" />
<glyph unicode="&#xd;" horiz-adv-x="409" />
<glyph unicode=" "  horiz-adv-x="409" />
<glyph unicode="&#x09;" horiz-adv-x="409" />
<glyph unicode="&#xa0;" horiz-adv-x="409" />
<glyph unicode="!" horiz-adv-x="399" d="M0 102q6 48 46.5 82.5t86.5 34.5q45 0 77 -34.5t26 -82.5q-7 -48 -49.5 -83t-88.5 -35q-45 0 -74.5 34.5t-23.5 83.5zM104 352l37 666l62 436h200l-61 -436l-143 -666h-95z" />
<glyph unicode="&#x22;" horiz-adv-x="860" d="M147 1061q35 248 43 307q7 45 45 77t80 32q41 0 70 -33t23 -76q-2 -20 -7 -35.5t-8.5 -23.5t-17.5 -33l-125 -215h-103zM492 1061q35 248 43 307q7 45 44.5 77t79.5 32q41 0 70 -33t23 -76q-2 -20 -7 -35.5t-8.5 -23.5t-17.5 -33l-125 -215h-102z" />
<glyph unicode="#" horiz-adv-x="1218" d="M80 707l39 120h211l82 234h-224l41 121h224l92 272h119l-86 -272h288l92 272h115l-86 -272h240l-41 -121h-240l-82 -234h252l-39 -120h-250l-102 -293h-119l94 293h-288l-95 -293h-120l96 293h-213zM457 827h288l76 234h-289z" />
<glyph unicode="$" horiz-adv-x="1239" d="M8 238l144 98q105 -175 313 -205l76 535q-16 5 -50 13t-51 13q-136 39 -212.5 132.5t-53.5 240.5q11 72 46 139t92.5 125.5t146 97.5t196.5 48l25 174h145l-24 -176q132 -13 217.5 -72t144.5 -176l-131 -86q-26 71 -93.5 121t-158.5 69l-75 -541q306 -80 356 -251 q51 -158 -45 -332q-49 -88 -157.5 -154.5t-268.5 -77.5l-25 -168h-145l24 172q-87 9 -157.5 33.5t-122 63t-86.5 76t-70 88.5zM319 1071q-8 -46 2.5 -83t31 -62t57.5 -45.5t71 -32.5t82 -25l72 510q-116 -16 -205.5 -84.5t-110.5 -177.5zM610 129q139 7 223 70.5t99 167.5 q7 54 -8.5 96.5t-53 72.5t-81.5 50.5t-107 40.5z" />
<glyph unicode="%" horiz-adv-x="1476" d="M133 1120q23 159 121.5 257t234.5 98q147 0 213 -92t41 -263q-49 -360 -354 -360q-145 0 -212 95t-44 265zM209 0l979 1454h133l-979 -1454h-133zM250 1120q-17 -121 23 -187.5t130 -66.5q98 0 153.5 62t74.5 192q17 113 -26.5 179.5t-131.5 66.5q-87 0 -146.5 -65.5 t-76.5 -180.5zM809 344q23 159 121.5 257.5t234.5 98.5q148 0 213.5 -92t40.5 -264q-49 -360 -356 -360q-144 0 -210.5 94.5t-43.5 265.5zM924 344q-17 -120 24 -187t131 -67q98 0 152.5 61.5t73.5 192.5q17 114 -25.5 182t-130.5 68q-87 0 -147.5 -67.5t-77.5 -182.5z" />
<glyph unicode="&#x26;" horiz-adv-x="1249" d="M33 270q-5 104 39 193q17 35 44.5 71t50 60t65 59t61.5 49.5t67 49.5q-83 113 -109 165q-58 118 -34 236q25 122 120.5 209t219.5 100q117 14 213 -38t135 -152q41 -112 -11.5 -227.5t-164.5 -198.5l-156 -121l265 -340l192 164l88 -107l-196 -166l135 -174l-125 -98 q-119 156 -133 176q-108 -106 -241 -157.5t-258.5 -33t-205.5 110.5q-56 66 -61 170zM181.5 306q1.5 -41 21.5 -81q32 -65 95 -88.5t135.5 -8t147 58t132.5 102.5q1 1 -46.5 63.5t-121.5 160t-101 132.5q-41 -26 -77.5 -54t-72 -61.5t-60 -70t-39.5 -74.5t-13.5 -79z M366.5 1074q1.5 -23 11 -48t14.5 -39.5t24 -42.5t23.5 -35t30 -39t26.5 -34l98 73q180 124 180 240q1 77 -58.5 129.5t-137.5 52.5q-89 0 -146 -61t-65 -148q-2 -25 -0.5 -48z" />
<glyph unicode="'" horiz-adv-x="409" d="M147 1057q38 256 46 317q6 48 34 78.5t70 30.5q41 0 65.5 -31.5t18.5 -77.5q-8 -55 -35 -108l-92 -209h-107z" />
<glyph unicode="(" horiz-adv-x="548" d="M66 424q-22 302 79 605.5t308 563.5l118 -77q-188 -237 -280.5 -512.5t-77.5 -554.5q21 -278 149 -510l-139 -84q-134 243 -157 569z" />
<glyph unicode=")" horiz-adv-x="575" d="M-31 -61q199 240 291 510q95 281 80.5 555.5t-135.5 511.5l139 77q133 -259 148 -563t-89 -606q-115 -324 -317 -569z" />
<glyph unicode="*" horiz-adv-x="567" d="M164 1235l51 108l170 -73l8 198h113l-57 -202l192 77l21 -104l-207 -39l123 -145l-101 -70l-71 178l-125 -180l-82 66l163 151zM408 1212h4h-4z" />
<glyph unicode="+" horiz-adv-x="1089" d="M39 578l20 143h365l51 364h143l-51 -364h365l-21 -143h-364l-51 -367h-144l51 367h-364z" />
<glyph unicode="," horiz-adv-x="532" d="M-29 -213q33 256 43 317q6 48 34.5 78.5t70.5 30.5q41 0 65.5 -31.5t18.5 -77.5q-8 -55 -35 -108l-92 -209h-105z" />
<glyph unicode="-" horiz-adv-x="1099" d="M72 522l18 131h791l-19 -131h-790z" />
<glyph unicode="." horiz-adv-x="532" d="M0 102q4 48 44.5 82.5t86.5 34.5q45 0 76.5 -34.5t25.5 -82.5q-7 -48 -49 -83t-88 -35q-45 0 -74 34.5t-22 83.5z" />
<glyph unicode="/" horiz-adv-x="694" d="M-31 0l654 1454h170l-664 -1454h-160z" />
<glyph unicode="0" horiz-adv-x="1175" d="M55 367q-2 122 28 354.5t71 357.5q55 173 198 281t328 108q121 0 213 -60.5t136.5 -154t41.5 -200.5q-19 -404 -88 -668q-20 -76 -57.5 -143t-97.5 -127t-152 -95.5t-205 -35.5q-91 0 -164.5 26t-119 66.5t-76 93t-43 101.5t-13.5 96zM197 430q1 -28 2.5 -45.5t8.5 -52 t18 -58t33.5 -52.5t52.5 -46.5t77 -30t105 -12.5q79 0 144 29.5t106 78t66 95.5t38 96q33 130 57.5 328t14.5 299q-3 31 -5 48.5t-9.5 49t-18 50t-30 42.5t-45.5 37.5t-65 23t-88 9.5q-84 0 -151.5 -24t-110 -65t-68 -83.5t-40.5 -91.5q-33 -103 -65 -299.5t-27 -325.5z" />
<glyph unicode="1" horiz-adv-x="618" d="M131 1182l19 141l237 131h148l-203 -1454h-139l182 1300z" />
<glyph unicode="2" horiz-adv-x="1167" d="M-16 0q11 77 21 126.5t30.5 113.5t49.5 114t76.5 108t112.5 116q59 51 146 107t159.5 98.5t141.5 90t112.5 102t51.5 114.5q18 127 -50.5 184t-205.5 57q-59 0 -112 -19.5t-91 -48.5t-70 -67.5t-51 -73t-31 -67.5l-139 30q59 167 201 276t321 109q186 0 295 -104.5 t86 -269.5q-9 -65 -34 -121.5t-53 -93.5t-76 -77t-81.5 -61t-93 -57t-88.5 -55q-18 -12 -64 -40.5t-72 -45.5t-69.5 -48t-70.5 -55t-61 -59.5t-54.5 -68.5t-37.5 -74.5t-23 -85.5h758l-21 -154h-913z" />
<glyph unicode="3" horiz-adv-x="1144" d="M18 326q0 -1 37.5 12.5t74.5 27.5l38 13q8 -52 25 -91.5t49.5 -75.5t89 -55.5t135.5 -19.5q76 0 151 27.5t134 89.5t71 145q19 131 -56.5 207t-225.5 76h-43l18 133h41q126 0 217 72.5t109 195.5q15 110 -56 180t-204 70q-60 0 -112.5 -17t-87.5 -41t-64.5 -58t-45 -59.5 t-28.5 -53.5l-117 51q26 58 63 109.5t94 102t139 80.5t179 30q88 0 159 -23.5t116 -62t73 -90t36.5 -106t0.5 -110.5q-10 -69 -42.5 -132t-70.5 -102t-71.5 -62t-50.5 -23q11 -4 21.5 -9t27 -14.5t30.5 -21t31 -28.5t29 -37t24.5 -46.5t17 -57t7 -68.5t-5.5 -81 q-18 -126 -99 -222t-194.5 -143t-239.5 -46q-127 1 -209 32.5t-135 104t-80 197.5z" />
<glyph unicode="4" horiz-adv-x="1146" d="M14 322l21 145l749 985h207l-137 -985h162l-21 -145h-161l-46 -322h-143l45 322h-676zM184 473h527l112 809z" />
<glyph unicode="5" horiz-adv-x="1157" d="M8 340l142 39q7 -49 30.5 -93t63.5 -81.5t102 -59.5t139 -22q154 0 247.5 92t113.5 238q18 143 -54 235.5t-210 91.5q-37 0 -81 -9.5t-89.5 -27.5t-80 -51t-44.5 -74l-174 27l114 809h830l-21 -143h-686l-69 -500q4 5 13 13.5t39 29.5t64.5 37t89 29.5t113.5 13.5 q111 0 196 -37.5t134.5 -103t69 -153t4.5 -187.5q-31 -201 -183 -339.5t-346 -138.5q-100 0 -180.5 24t-130 61.5t-85 88t-51 97t-20.5 94.5z" />
<glyph unicode="6" horiz-adv-x="1171" d="M39 463q9 66 23 120.5t33 96t33 66.5t37.5 59t31.5 47l452 602h178l-475 -602q8 12 33.5 27.5t81.5 31.5t121 17q207 1 322.5 -135.5t84.5 -343.5q-31 -210 -181 -342t-370 -132q-109 0 -193.5 37.5t-134.5 103.5t-70.5 155t-6.5 192zM184 449q-20 -142 59 -234.5 t224 -97.5q139 -4 249.5 95.5t131.5 236.5q14 89 -16 166.5t-101.5 126t-169.5 49.5q-147 1 -251.5 -97.5t-125.5 -244.5z" />
<glyph unicode="7" horiz-adv-x="1101" d="M133 0l785 1309h-736l21 143h907l-16 -121l-791 -1331h-170z" />
<glyph unicode="8" horiz-adv-x="1101" d="M16 375q8 58 26 109t37.5 86t48.5 66.5t50.5 49.5t53.5 36t46.5 24.5t40.5 17.5q-13 8 -22 13.5t-23.5 16t-24.5 20t-23.5 23.5t-22.5 28.5t-18.5 33t-15 40t-9.5 46t-3.5 54t5.5 61.5q24 172 149.5 272.5t327.5 100.5q128 0 213.5 -52.5t117.5 -135.5t17 -185 q-37 -265 -278 -340q50 -16 93 -44.5t78.5 -73t50.5 -110.5t3 -145q-61 -405 -506 -405q-201 0 -318.5 107t-93.5 286zM152 375q-13 -105 71 -175.5t221 -70.5q56 0 101 6t91 23.5t78.5 46t57 75t33.5 109.5q8 35 2.5 66t-13 55.5t-25.5 45t-36 36.5t-44 29.5t-49.5 23 t-53 18.5t-53.5 15t-53 13q-9 2 -13 3q-74 -20 -129.5 -49t-87.5 -59t-53.5 -69t-30 -70.5t-14.5 -71.5zM305 1096q-8 -55 5.5 -100t38 -73t64.5 -50.5t72.5 -33t73.5 -20.5q138 18 210.5 93t88.5 188q18 121 -38 181t-204 60q-133 0 -214.5 -65.5t-96.5 -179.5z" />
<glyph unicode="9" horiz-adv-x="1105" d="M111 999q18 121 69 214t125 149t161.5 83.5t186.5 27.5q214 0 323.5 -127t78.5 -345q-10 -71 -35.5 -142t-46.5 -109t-57 -96t-42 -68l-434 -586h-176l469 596q-8 -12 -29.5 -26.5t-75 -29.5t-122.5 -16q-96 -2 -174.5 26t-135 84t-80 150t-5.5 215zM242 1001 q-24 -143 53.5 -239.5t230.5 -95.5q154 1 254 93.5t121 241.5q23 152 -45.5 242t-230.5 90q-160 0 -259 -92.5t-124 -239.5z" />
<glyph unicode=":" horiz-adv-x="454" d="M2 143q7 48 47.5 82.5t85.5 34.5q46 0 78 -34.5t25 -82.5q-6 -48 -48 -83t-88 -35q-45 0 -74.5 34.5t-25.5 83.5zM102 852q6 48 47 82.5t87 34.5q45 0 76.5 -34.5t25.5 -82.5q-7 -49 -48.5 -84t-86.5 -35t-76.5 35.5t-24.5 83.5z" />
<glyph unicode=";" horiz-adv-x="411" d="M-14 -172q33 256 41 317q8 49 36 79t70 30q41 0 65 -31.5t17 -77.5q-5 -53 -33 -108l-92 -209h-104zM88 750q6 48 46.5 82t86.5 34t77.5 -34t25.5 -82q-7 -48 -49 -83.5t-87 -35.5t-76 35.5t-24 83.5z" />
<glyph unicode="&#x3c;" horiz-adv-x="1167" d="M45 506l16 117l910 434l43 -117l-787 -375l682 -372l-75 -117z" />
<glyph unicode="=" horiz-adv-x="1126" d="M53 401l19 138h993l-18 -138h-994zM119 868l20 138h994l-21 -138h-993z" />
<glyph unicode="&#x3e;" horiz-adv-x="1062" d="M0 193l784 372l-680 375l76 117l787 -434l-17 -117l-907 -430z" />
<glyph unicode="?" horiz-adv-x="1056" d="M113 1118q40 94 104 167t137 115t149.5 62t149.5 15q167 -11 268 -111t107 -266q2 -64 -24.5 -130t-62 -112.5t-85.5 -93.5t-78.5 -67.5t-56.5 -39.5q-104 -66 -157.5 -131.5t-65.5 -148.5h-142q10 69 37.5 128t70 105.5t84 80t97.5 69.5q128 84 186.5 159t55.5 162 q-2 64 -27 115.5t-63.5 82t-82.5 46.5t-89 18q-67 3 -141 -25.5t-142 -92t-104 -148.5zM279 102q6 48 46.5 82.5t86.5 34.5q45 0 76.5 -34.5t25.5 -82.5q-7 -48 -49 -83t-88 -35q-45 0 -75 34.5t-23 83.5z" />
<glyph unicode="@" horiz-adv-x="1773" d="M68 655q27 181 116.5 340.5t233.5 276.5q127 105 279.5 161t308.5 56q165 0 303 -62t235 -178q98 -115 136.5 -271.5t13.5 -334.5q-36 -247 -138 -395q-44 -58 -102 -94t-97 -45t-73 -9q-98 0 -162.5 65.5t-89.5 180.5q-17 -25 -33.5 -43.5t-46 -41.5t-71.5 -35.5 t-93 -12.5q-82 -1 -144.5 22t-100.5 64t-60 98t-23 124t11 141q34 185 144 297t278 106q80 -1 130.5 -38t47.5 -81l16 86l162 -6l-24 -129l-62 -352l-2 -10q-16 -127 23 -206t102 -89q90 -15 156 82q65 100 98 321q27 198 -36 358.5t-199.5 251t-319.5 90.5 q-124 0 -246.5 -45t-224.5 -129q-119 -102 -195.5 -233.5t-97.5 -280.5q-8 -73 -7.5 -144t19 -138.5t47 -127t77 -109t108.5 -85.5t142 -56t177 -20h4q118 -5 183 27l59 -125q-96 -47 -242 -47h-26q-186 0 -330 64.5t-239 185.5q-83 109 -115.5 258.5t-9.5 316.5zM645 643 q-22 -137 22.5 -212t143.5 -73q76 3 122 72.5t71 210.5q30 132 5 201.5t-118 72.5q-95 6 -162.5 -73.5t-83.5 -198.5z" />
<glyph unicode="A" horiz-adv-x="1409" d="M-37 0l754 1454h123l348 -1454h-152l-88 362h-645l-186 -362h-154zM377 504h536l-163 739z" />
<glyph unicode="B" horiz-adv-x="1245" d="M0 0l203 1454h465q76 0 141 -13.5t118.5 -44t88.5 -75.5t49 -111q8 -36 7 -77q0 -35 -5 -72q-9 -63 -32 -117t-50 -87t-55.5 -56.5t-48.5 -33t-29 -9.5q14 0 40 -12.5t58.5 -41.5t59 -68.5t40.5 -101.5q8 -35 7 -73q0 -28 -4 -58q-7 -47 -24 -96.5t-53.5 -106t-86 -99.5 t-129 -72t-174.5 -29h-586zM162 137h428q141 0 222 76.5t99 200.5q3 22 3 42q0 86 -55 148q-68 76 -208 76h-413zM258 823h414q109 0 177 73t81 171q2 17 2 35q0 24 -4 48q-8 41 -32.5 80.5t-77 64t-126.5 24.5h-364z" />
<glyph unicode="C" horiz-adv-x="1325" d="M66 637q11 85 24 166q44 312 225.5 492t434.5 180q211 0 339.5 -128.5t141.5 -353.5h-146q-17 161 -109.5 249.5t-246.5 88.5q-199 0 -331.5 -142t-166.5 -386l-24 -166q-9 -66 -9 -124q0 -159 68 -257q93 -134 293 -135q158 0 277.5 95t181.5 265h143 q-74 -236 -241 -368.5t-381 -132.5q-251 0 -384 171q-100 128 -100 338q0 70 11 148z" />
<glyph unicode="D" horiz-adv-x="1290" d="M0 0l203 1454h450q254 0 398 -178q113 -139 112 -346q0 -58 -8 -121q-16 -113 -25 -168q-27 -196 -126 -343t-242.5 -222.5t-310.5 -75.5h-451zM162 133h307q198 0 343 139t177 369l25 168q7 52 7 100q0 160 -82 270q-107 142 -304 142h-307z" />
<glyph unicode="E" horiz-adv-x="1198" d="M0 0l203 1454h897l-21 -149h-755l-70 -490h616l-20 -149h-617l-71 -519h782l-20 -147h-924z" />
<glyph unicode="F" horiz-adv-x="1171" d="M0 0l203 1454h897l-21 -149h-753l-70 -490h614l-20 -149h-614l-93 -666h-143z" />
<glyph unicode="G" horiz-adv-x="1351" d="M68 639q11 65 24 170q44 310 225 488t435 178q202 0 329 -124t146 -339h-146q-19 151 -110.5 236t-239.5 85q-197 0 -329 -140t-166 -384l-25 -170q-9 -66 -9 -123q0 -159 68 -258q93 -137 291 -137q183 0 311.5 122.5t171.5 338.5h-401l21 143h403h86h53q-2 -20 -7 -51 t-5 -35q-42 -307 -221.5 -484.5t-431.5 -177.5q-121 0 -218 43.5t-161.5 125.5t-89.5 208q-14 68 -14 145q0 67 10 140z" />
<glyph unicode="H" horiz-adv-x="1298" d="M0 0l203 1454h143l-92 -661h731l92 661h144l-203 -1454h-144l93 662h-731l-93 -662h-143z" />
<glyph unicode="I" d="M0 0l203 1454h143l-203 -1454h-143z" />
<glyph unicode="J" horiz-adv-x="1087" d="M-49 109l110 100q76 -88 222 -88q163 0 272.5 117t138.5 321l125 895h144q-121 -866 -125 -895q-38 -268 -197 -425t-379 -157q-200 0 -311 132z" />
<glyph unicode="K" horiz-adv-x="1310" d="M0 0l203 1454h143l-100 -717l815 717h201l-650 -569l529 -885h-176l-467 782l-281 -245l-74 -537h-143z" />
<glyph unicode="L" horiz-adv-x="1132" d="M0 0l203 1454h143l-184 -1315h778l-18 -139h-922z" />
<glyph unicode="M" horiz-adv-x="1640" d="M0 0l203 1454h225l268 -1128l584 1128h246l-203 -1454h-143l184 1317l-616 -1190h-152l-274 1147l-179 -1274h-143z" />
<glyph unicode="N" horiz-adv-x="1392" d="M0 0l203 1454h184l598 -1249l174 1249h141l-202 -1454h-183l-598 1255l-176 -1255h-141z" />
<glyph unicode="O" horiz-adv-x="1353" d="M70 641q11 65 24 170q44 308 223 485t431 177q250 0 379 -180q97 -136 97 -341q0 -67 -10 -141q-17 -131 -24 -170q-42 -305 -222 -481t-431 -176q-120 0 -215.5 43t-159.5 125q-64 80 -89 206q-13 67 -13 143q0 67 10 140zM209 641q-9 -66 -9 -124q0 -157 67 -255 q92 -135 290 -135q196 0 327 136.5t165 377.5l24 170q9 64 9 121q0 156 -68 258q-93 140 -287 141q-197 0 -328.5 -139t-165.5 -381z" />
<glyph unicode="P" horiz-adv-x="1218" d="M0 0l203 1454h512q217 0 331 -127q93 -103 93 -245q0 -34 -6 -70q-27 -184 -179 -311.5t-362 -127.5h-369l-80 -573h-143zM244 715h368q146 0 252 84t125 213q4 26 4 49q0 101 -66 167q-81 81 -233 81h-368z" />
<glyph unicode="Q" horiz-adv-x="1425" d="M70 641q8 44 24 170q29 207 122.5 359t231 229.5t304.5 77.5q251 0 382 -181q99 -137 99 -345q0 -66 -10 -140q-14 -112 -25 -170q-40 -297 -213 -473l133 -156l-114 -100l-138 158q-146 -90 -325 -90q-122 0 -218 43t-160.5 124.5t-89.5 208.5q-13 67 -13 143 q0 68 10 142zM211 641q-9 -67 -9 -125q0 -159 67 -258q92 -137 292 -137q125 0 217 53l-127 150l115 100l131 -154q132 148 160 371l24 170q9 64 9 120q0 158 -70 262q-94 142 -289 142q-199 0 -330 -140t-165 -384z" />
<glyph unicode="R" horiz-adv-x="1284" d="M0 0l203 1454h510q144 0 246 -60q101 -59 145 -159q31 -71 32 -152q0 -34 -6 -69q-20 -148 -125 -262.5t-260 -157.5l248 -594h-162l-239 575h-2h-367l-80 -575h-143zM244 715h366q147 0 253.5 84t125.5 215q4 25 4 48q0 100 -67 166q-82 82 -234 83h-366z" />
<glyph unicode="S" horiz-adv-x="1271" d="M-2 240l121 94q73 -119 173.5 -165t237.5 -46q155 0 252.5 64.5t114.5 177.5q3 22 3 43q0 39 -11 71q-17 50 -50.5 82.5t-91.5 58t-115.5 40t-137.5 28.5q-172 28 -254 128q-65 79 -65 192q0 30 5 63q15 77 54 146t102.5 128.5t162.5 94.5t220 35q298 0 418 -199 l-119 -90q-34 58 -128.5 100.5t-207.5 42.5q-134 0 -237.5 -70.5t-120.5 -191.5q-6 -32 -2.5 -59t10 -48.5t21 -39t30 -31t38 -24.5t44.5 -19t49.5 -14.5t53.5 -12t55 -11.5q17 -3 26 -5q69 -14 127 -35t112.5 -57t90.5 -82q36 -47 52 -113q9 -39 9 -83q0 -30 -4 -62 q-14 -100 -61.5 -176t-119.5 -122t-159 -68.5t-188 -22.5q-86 0 -159.5 15t-125 38.5t-96 59.5t-73 69t-56.5 76z" />
<glyph unicode="T" horiz-adv-x="1253" d="M158 1311l20 143h998l-21 -143h-428l-182 -1311h-144l183 1311h-426z" />
<glyph unicode="U" horiz-adv-x="1351" d="M86 612q2 18 58.5 424t58.5 418h141l-117 -842q-11 -76 -11 -140q0 -142 54 -228q78 -124 254 -123q363 0 434 491l117 842h144q-2 -22 -59 -432l-58 -410q-44 -315 -195 -475t-403 -160q-245 0 -354 158q-77 112 -77 304q0 80 13 173z" />
<glyph unicode="V" horiz-adv-x="1372" d="M156 1454h149l262 -1241l613 1241h149l-715 -1454h-149z" />
<glyph unicode="W" horiz-adv-x="1818" d="M145 1454h146l192 -1200l412 932h145l150 -932l524 1200h150l-635 -1454h-150l-147 936l-408 -936h-149z" />
<glyph unicode="X" horiz-adv-x="1349" d="M-41 0l582 721l-361 733h168l299 -604l488 604h170l-592 -735l356 -719h-170l-291 590l-477 -590h-172z" />
<glyph unicode="Y" horiz-adv-x="1288" d="M154 1454h161l299 -717l498 717h164l-612 -879l-80 -575h-144l80 575z" />
<glyph unicode="Z" horiz-adv-x="1261" d="M-10 0l22 164l967 1147h-784l20 143h963l-21 -143h-4l-987 -1168h827l-18 -143h-985z" />
<glyph unicode="[" horiz-adv-x="614" d="M-8 -68l221 1596h469l-20 -148h-310l-182 -1304h309l-20 -144h-467z" />
<glyph unicode="\" horiz-adv-x="698" d="M170 1454h170l248 -1454h-160z" />
<glyph unicode="]" horiz-adv-x="753" d="M-8 -68l18 144h309l183 1304h-309l20 148h469l-223 -1596h-467z" />
<glyph unicode="^" horiz-adv-x="991" d="M238 1280l303 209h73l242 -209l-96 -104l-203 176l-258 -174z" />
<glyph unicode="_" horiz-adv-x="1249" d="M-18 -137l18 137h1249l-20 -137h-1247z" />
<glyph unicode="`" horiz-adv-x="735" d="M51 1419l154 121l213 -375h-142z" />
<glyph unicode="a" horiz-adv-x="1122" d="M18 254q5 25 5 37q22 152 150 237.5t339 85.5h246q1 8 5 38t5 38q4 30 -1.5 59t-25 62t-69 53.5t-123.5 20.5q-67 0 -122.5 -11t-96.5 -32.5t-63 -37t-48 -38.5l-74 113q111 88 215.5 118.5t212.5 30.5q48 0 92.5 -7t96.5 -30t86 -61q34 -37 52 -105q10 -39 11 -85 q0 -34 -6 -72q-90 -631 -92 -668h-141l16 119q-50 -62 -145.5 -98.5t-202.5 -36.5h-47q-133 0 -211 81q-66 69 -66 157q0 16 2 32zM152 272q-1 -9 -1 -19q1 -50 37 -89q44 -47 138 -47h26q155 0 256 76t117 190l12 94h-235q-165 0 -250 -45.5t-98 -146.5q0 -1 -1 -6t-1 -7z " />
<glyph unicode="b" horiz-adv-x="1101" d="M0 0l203 1454h141l-82 -590q43 78 133.5 122t179.5 44q181 0 287 -130q82 -102 83 -254q0 -43 -7 -91q0 -1 -14 -100q-16 -109 -66 -200.5t-120 -149.5t-150.5 -90.5t-159.5 -32.5q-83 0 -158.5 37.5t-111.5 109.5l-17 -129h-141zM201 455q-5 -35 -5 -67q0 -108 58 -178 q74 -90 190 -89q53 0 107 22t101.5 63t82 106t45.5 143l15 100q5 35 5 66q0 107 -52 177q-67 92 -197 91q-127 0 -221.5 -94t-114.5 -240z" />
<glyph unicode="c" horiz-adv-x="1095" d="M43 451q3 21 7 48.5t7 49.5q30 216 177 349.5t335 133.5q127 0 221 -67t134 -185l-140 -57q-27 77 -89.5 121.5t-149.5 44.5q-133 0 -227.5 -94t-116.5 -246l-15 -98q-4 -31 -5 -60q0 -45 11 -85q17 -66 54 -107t86 -63.5t104 -22.5q203 0 297 147l123 -57 q-73 -115 -187.5 -173.5t-250.5 -58.5q-82 0 -156 33t-128 92q-54 60 -80 152q-16 58 -17 124q0 38 6 79z" />
<glyph unicode="d" horiz-adv-x="1138" d="M43 455q14 99 14 100q30 214 171 344.5t323 130.5q89 0 166.5 -44t101.5 -122l82 590h141l-202 -1454h-142l17 129q-57 -72 -143 -109.5t-169 -37.5q-79 0 -150.5 32.5t-124.5 90.5q-52 57 -76 149q-15 55 -15 118q0 40 6 83zM186 455q-5 -35 -5 -66q1 -107 59 -177 q76 -90 188 -91q116 0 216 89.5t122 244.5l14 100q5 33 5 63q1 104 -53 177q-68 94 -197 94q-131 0 -222.5 -91.5t-111.5 -242.5z" />
<glyph unicode="e" horiz-adv-x="1130" d="M43 453q3 22 6 49.5t6 48.5q32 217 176.5 349t333.5 132q185 0 293 -134q84 -105 84 -258q0 -43 -6 -89q-5 -51 -14 -111h-738q-2 -20 -2 -40q0 -52 16 -98q22 -63 63 -102.5t93 -61t107 -21.5q107 0 179 25.5t132 101.5l98 -86q-88 -101 -191.5 -142t-238.5 -41 q-82 0 -159 33t-136 92q-59 60 -88 152q-19 61 -19 129q0 35 5 72zM203 571h596q3 27 3 53q0 106 -58 177q-72 88 -199 88q-133 0 -226 -85.5t-116 -232.5z" />
<glyph unicode="f" horiz-adv-x="731" d="M90 883l21 139h137l10 78q11 75 36.5 139.5t69.5 120.5t115 88.5t162 32.5h88l-18 -133h-6q-78 0 -134.5 -17.5t-92 -52.5t-55 -80t-28.5 -106l-8 -70h275l-21 -139h-274l-123 -883h-144l123 883h-133z" />
<glyph unicode="g" horiz-adv-x="1130" d="M-12 -246l118 72q80 -137 265 -137q132 0 217.5 71t103.5 205l29 187q-43 -79 -133.5 -123.5t-181.5 -44.5q-182 0 -286 130q-80 101 -80 253q0 44 7 92q3 25 7.5 53t6.5 45q15 109 64.5 200.5t118.5 150.5t149.5 91.5t159.5 32.5q85 0 159.5 -37t110.5 -110l19 123h141 l-145 -1026q-28 -205 -161 -313.5t-327 -108.5q-130 0 -222 50t-140 144zM188 459q-5 -37 -5 -70q0 -103 51 -172q67 -92 198 -92q124 0 219 94.5t115 239.5l14 98q5 33 5 64q0 43 -9 80q-15 65 -50 105.5t-82.5 62.5t-102.5 22q-115 0 -216 -91t-122 -243z" />
<glyph unicode="h" horiz-adv-x="1140" d="M0 0l203 1454h143l-82 -584q37 74 125.5 119t179.5 45q194 0 290 -133q73 -101 72 -249q0 -48 -7 -101q-2 -11 -38.5 -274t-37.5 -277h-141l75 551q6 43 6 81q0 98 -42 166q-60 94 -195 93q-132 0 -221 -93t-111 -247l-76 -551h-143z" />
<glyph unicode="i" horiz-adv-x="440" d="M0 0h141l142 1008h-142zM176 1266l27 188h141l-27 -188h-141z" />
<glyph unicode="j" horiz-adv-x="532" d="M-238 -401q2 17 9.5 68.5t9.5 68.5q13 -2 26 -2q77 0 141 64q74 73 91 198l143 1012h144q-136 -953 -144 -1012q-13 -92 -45.5 -165t-74.5 -117.5t-94 -73t-104 -37.5q-33 -6 -66 -6q-18 0 -36 2zM217 1264l27 190h143l-27 -190h-143z" />
<glyph unicode="k" horiz-adv-x="1056" d="M0 0l203 1454h141l-129 -917l541 471h200l-499 -439l381 -569h-183l-313 469l-154 -131l-47 -338h-141z" />
<glyph unicode="l" horiz-adv-x="436" d="M0 0l203 1454h141l-203 -1454h-141z" />
<glyph unicode="m" horiz-adv-x="1701" d="M0 0l76 553l65 455h142l-19 -134q36 75 113 117.5t166 42.5q225 0 291 -186q56 103 151.5 144.5t200.5 41.5q192 0 271 -119q57 -85 56 -224q0 -54 -8 -116q-2 -11 -40.5 -286t-39.5 -289h-143l76 553q9 64 9 116q0 85 -25 139q-41 86 -175 85q-130 0 -207 -90.5 t-100 -249.5l-76 -553h-2h-139h-4l76 553q10 57 10 106q0 15 -1 31q-4 62 -23 107t-63.5 70.5t-113.5 25.5q-130 0 -207 -90.5t-100 -249.5l-76 -553h-141z" />
<glyph unicode="n" horiz-adv-x="1130" d="M0 0l141 1008h142l-19 -134q35 72 128 116t186 44q194 0 284 -130q67 -97 68 -245q0 -50 -8 -106q0 -6 -37.5 -275.5t-38.5 -277.5h-144l76 553q7 45 7 84q0 99 -41 167q-57 96 -191 95q-131 0 -222.5 -96t-113.5 -250l-76 -553h-141z" />
<glyph unicode="o" horiz-adv-x="1101" d="M49 455q3 22 6 49.5t6 48.5q32 215 175 346t329 131q185 0 293 -134q85 -105 84 -256q0 -42 -6 -87q-1 -7 -6 -45.5t-6 -52.5q-16 -112 -68 -204.5t-123 -149.5t-152.5 -88t-162.5 -31t-153.5 32.5t-126.5 90.5q-54 57 -80 149q-16 56 -15 120q0 39 6 81zM188 455 q-5 -33 -5 -64q0 -108 61 -179q78 -91 194 -91q37 0 77.5 11t84 37t79.5 63.5t63.5 95t37.5 127.5l13 98q5 34 5 65q0 101 -54 175q-71 96 -199 96q-132 0 -227 -93t-117 -243z" />
<glyph unicode="p" horiz-adv-x="1138" d="M-61 -440l202 1448h142l-19 -125q57 74 141 111.5t168 37.5q79 0 150.5 -32.5t124.5 -91.5t78 -150q16 -58 16 -122q0 -38 -6 -79q-2 -17 -6.5 -45t-7.5 -53q-30 -214 -172 -345.5t-324 -131.5q-91 0 -167 44.5t-97 123.5l-84 -590h-139zM201 459q-5 -33 -5 -64 q0 -103 52 -177q68 -95 194 -95q130 0 222 92.5t114 243.5l15 98q5 35 5 67q0 107 -58 177q-75 90 -189 90q-116 0 -215 -89.5t-121 -244.5z" />
<glyph unicode="q" horiz-adv-x="1130" d="M41 459q3 25 7.5 53t6.5 45q20 144 99.5 255t183.5 165.5t211 54.5q84 0 158 -37.5t110 -111.5l19 125h141l-205 -1448h-141l84 590q-43 -79 -133 -123.5t-181 -44.5q-182 0 -286 131q-81 102 -81 254q0 44 7 92zM184 459q-5 -37 -5 -71q0 -103 50 -172q67 -93 197 -93 q126 0 221 95.5t115 240.5l14 98q5 36 5 68q0 108 -57 177q-73 89 -189 89q-114 0 -214 -90t-122 -244z" />
<glyph unicode="r" horiz-adv-x="790" d="M2 0l141 1008h142l-21 -142q35 73 123.5 117.5t179.5 44.5q85 0 166 -33l-76 -131q-54 21 -110 21q-131 0 -218.5 -92t-109.5 -246l-76 -547h-141z" />
<glyph unicode="s" horiz-adv-x="1048" d="M-23 137l113 105q54 -58 147 -90.5t189 -32.5q110 0 185.5 40.5t84.5 106.5q1 12 1 23q0 63 -50 95q-59 38 -229 58q-47 5 -88.5 14t-89.5 30t-79.5 51.5t-48.5 81.5q-11 33 -11 73q0 21 3 43q12 84 53.5 144t104 92.5t131 46.5t148.5 14q107 0 215.5 -40.5t150.5 -98.5 l-92 -105q-69 57 -137 82q-61 20 -133 24q-15 1 -29 1q-56 -1 -106 -11q-64 -14 -109.5 -50.5t-52.5 -90.5q-2 -13 -2 -25q0 -24 8 -42q12 -28 31.5 -44.5t66 -28.5t83 -17.5t110.5 -14.5q301 -36 300 -255q0 -24 -3 -50q-16 -120 -127 -203t-299 -83q-52 0 -84.5 1.5 t-85.5 9.5t-92.5 24t-87.5 47t-89 75z" />
<glyph unicode="t" horiz-adv-x="727" d="M68 891l18 137h147l46 324h143q-20 -152 -45 -324h219l-18 -137h-220q-73 -504 -82 -582q-3 -21 -3 -39q-1 -25 5 -46q10 -36 31.5 -53.5t49 -29t56.5 -11.5t54 1q-2 -19 -9 -72t-9 -67q-27 -1 -53 0t-51.5 2t-49.5 7t-46 13.5t-41 21.5t-34 31.5t-26 43t-16.5 56 t-5.5 71t7 88.5q2 13 13.5 95t31 220t35.5 250h-147z" />
<glyph unicode="u" horiz-adv-x="1144" d="M63 459q0 2 38 269.5t40 279.5h144l-78 -549q-6 -42 -6 -80q1 -100 41 -169q56 -95 190 -95q131 0 223.5 96t114.5 248l78 549h141v-2l-80 -555l-61 -451h-141l18 139q-36 -73 -130.5 -117.5t-186.5 -44.5q-194 -1 -285 131q-68 98 -68 245q0 50 8 106z" />
<glyph unicode="v" horiz-adv-x="1077" d="M106 1008h152l188 -781l408 781h154l-533 -1008h-123z" />
<glyph unicode="w" horiz-adv-x="1519" d="M90 1008h148l122 -738l330 738h150l123 -738l329 738h152l-453 -1008h-129l-131 768l-342 -768h-131z" />
<glyph unicode="x" horiz-adv-x="1067" d="M-55 0l417 510l-262 498h172l195 -373l311 373h172l-415 -498l272 -510h-170l-205 381l-317 -381h-170z" />
<glyph unicode="y" horiz-adv-x="1105" d="M-20 -371l57 138q52 -16 90 -18t63.5 5t46.5 29t36 46t36 64q3 5 4.5 8l4 8l4.5 9l38 78l-245 1012h157l197 -811l424 811h160q-580 -1096 -639 -1209q-45 -77 -95 -123t-105 -61q-44 -12 -88 -12q-11 0 -23 1q-55 4 -123 25z" />
<glyph unicode="z" horiz-adv-x="1009" d="M0 0l16 131l650 727h-537l23 150h757l-14 -95l-694 -770h600l-19 -143h-782z" />
<glyph unicode="{" horiz-adv-x="573" d="M86 651l23 152q49 0 99.5 48t61.5 132l41 291q20 140 111.5 222.5t222.5 82.5l-22 -152q-137 0 -158 -153q-8 -41 -41 -291q-10 -76 -45.5 -141t-85.5 -109q2 -2 6 -8t6 -8q69 -81 51 -219l-43 -308q-6 -40 3 -70t24 -44t36 -22t32 -9.5t20 -1.5l-20 -154q-54 0 -103 20 t-85.5 57t-53 95.5t-6.5 128.5l43 308q9 79 -21 112q-16 16 -40 26t-40 12z" />
<glyph unicode="|" horiz-adv-x="202" d="M-39 -279l270 1940h150l-272 -1940h-148z" />
<glyph unicode="}" horiz-adv-x="571" d="M-20 -111l20 154q8 0 19.5 1.5t35 9.5t43 22t37 44t23.5 70l43 308q18 137 112 219q2 2 8.5 8t8.5 8q-82 96 -62 250q33 250 41 291q21 153 -116 153l22 152q132 0 200 -82.5t48 -222.5q-33 -230 -41 -291q-11 -84 26.5 -132t86.5 -48l-23 -152q-62 -6 -109 -41 q-40 -37 -49 -112l-43 -308q-21 -139 -119 -220t-212 -81z" />
<glyph unicode="~" horiz-adv-x="1011" d="M51 623q142 146 287 143q65 3 119 -13t83.5 -37.5t61.5 -40t57 -18.5q102 2 142 99l98 -54q-34 -64 -103 -112.5t-147 -48.5q-50 1 -90.5 19t-65.5 39t-69.5 37.5t-101.5 14.5q-90 -5 -189 -100l-16 -12z" />
<glyph unicode="&#xa1;" horiz-adv-x="389" d="M-61 -446l61 436l145 665h95l-41 -665l-62 -436h-198zM113 905q6 48 46.5 82.5t86.5 34.5q45 0 76.5 -34.5t25.5 -82.5q-7 -48 -49.5 -83.5t-87.5 -35.5t-75 35t-23 84z" />
<glyph unicode="&#xa2;" horiz-adv-x="1032" d="M35 510q33 233 179 377t372 143h2l92 242l143 2l-100 -264q48 -15 85.5 -40.5t59.5 -53.5t35 -52t21 -45.5t10 -23.5l-121 -52q-38 96 -145 129l-285 -743h8q32 -4 43 -4q2 0 6 -1t6 -1t6 1t5 1q190 0 293 129l118 -51l-12 -17q-13 -17 -18.5 -24.5t-23 -27t-30.5 -30.5 t-37 -29.5t-46 -30t-54 -25t-64.5 -21t-74 -13t-86.5 -5.5q-50 0 -90 6l-94 -248h-129l106 289q-111 60 -156.5 188t-23.5 295zM170 510q-14 -111 11 -197.5t91 -134.5l265 713q-96 -3 -170 -57q-81 -47 -131.5 -131t-65.5 -193z" />
<glyph unicode="&#xa3;" horiz-adv-x="1167" d="M20 72q5 3 13.5 8.5t33.5 24.5t49 40t55 54t55.5 67.5t46.5 80t32.5 91t9 101t-19.5 110.5q-6 18 -16 50t-15 46h-213l17 127h161q-18 88 -19 155t9 110.5t33 93.5q19 41 59 86.5t110 88.5t153.5 64t198 2t233.5 -88l-19 -131q-299 182 -522 27q-162 -118 -76 -408h289 l-16 -127h-226l2 -2q14 -34 22.5 -70t8 -97t-18.5 -121t-67 -137.5t-127 -151.5q41 14 98 14q70 4 126 -9t83.5 -31.5t59 -34t57.5 -15.5q113 2 156 109l106 -60q-37 -69 -112 -121.5t-160 -52.5q-54 0 -98 19.5t-71 42t-75.5 40.5t-110.5 15q-52 -1 -118.5 -38t-110.5 -79 l-31 49z" />
<glyph unicode="&#xa5;" horiz-adv-x="1239" d="M35 250l16 123h457l20 143h-456l16 121h422l-348 817h176l295 -743l500 743h167l-565 -817h410l-17 -121h-444l-20 -143h444l-16 -123h-445l-35 -250h-155l35 250h-457z" />
<glyph unicode="&#xa6;" horiz-adv-x="419" d="M-33 -238l111 793h149l-112 -793h-148zM115 827l114 813h150l-115 -813h-149z" />
<glyph unicode="&#xa8;" horiz-adv-x="899" d="M162 1325q6 42 41 72t76 30t68.5 -30t21.5 -72t-42.5 -73t-76.5 -31t-67 31t-21 73zM578 1325q6 42 41 72t75 30q41 0 68.5 -30t21.5 -72t-42 -73t-76 -31t-67 31t-21 73z" />
<glyph unicode="&#xab;" horiz-adv-x="1239" d="M45 510l14 90l492 432l78 -92l-436 -385l327 -381l-102 -94zM537 510l14 90l491 432l78 -92l-436 -385l328 -381l-103 -94z" />
<glyph unicode="&#xad;" horiz-adv-x="1099" d="M72 522l18 131h791l-19 -131h-790z" />
<glyph unicode="&#xaf;" horiz-adv-x="899" d="M168 1210l18 138h772l-18 -138h-772z" />
<glyph unicode="&#xb0;" horiz-adv-x="593" d="M156 1208q15 103 96.5 175.5t183.5 72.5q103 0 165.5 -72.5t47.5 -175.5q-13 -102 -95 -173.5t-185 -71.5t-164.5 71t-48.5 174zM279 1208q-6 -53 24 -88t82 -35q53 0 93 35.5t46 87.5q8 53 -22 88t-82 35q-53 0 -93.5 -35.5t-47.5 -87.5z" />
<glyph unicode="&#xb4;" horiz-adv-x="860" d="M487 1192l289 369l123 -136l-274 -233h-138z" />
<glyph unicode="&#xb7;" horiz-adv-x="225" d="M98 729q6 45 44.5 78t80.5 33t72 -33t24 -78q-7 -45 -45.5 -78t-80.5 -33t-72 33t-23 78z" />
<glyph unicode="&#xb8;" horiz-adv-x="1239" d="M338 -459l53 113l127 -43q28 -8 45 -8q41 0 74 26q23 19 32.5 47t6.5 52q-5 36 -37.5 60.5t-128.5 55.5l-12 4l4 11q1 7 4 30t8 58.5t8 58.5l2 19h119l-8 -101q148 -49 162 -164q8 -58 -16.5 -117t-73.5 -98q-74 -61 -164 -61q-43 0 -78 12z" />
<glyph unicode="&#xbb;" horiz-adv-x="1245" d="M25 174l438 381l-330 385l103 92l372 -432l-14 -90l-492 -430zM516 174l438 381l-329 385l102 92l373 -432l-15 -90l-491 -430z" />
<glyph unicode="&#xbf;" horiz-adv-x="960" d="M-33 -92q-2 64 23 128.5t59 111t81.5 90.5t76 65.5t55.5 38.5q103 65 158 135t67 154h156q-8 -56 -31 -107.5t-48.5 -87.5t-69.5 -77.5t-72 -63.5t-78 -59q-82 -58 -125.5 -97t-70.5 -88.5t-25 -107.5q3 -125 75 -190t171 -68q68 -3 136 20.5t132 81.5t100 143l144 -41 q-53 -124 -147 -209.5t-194.5 -120t-199.5 -28.5q-167 11 -267 111t-106 266zM481 905q6 48 46.5 82.5t86.5 34.5q45 0 77 -34.5t26 -82.5q-7 -48 -49.5 -83.5t-87.5 -35.5t-75.5 35.5t-23.5 83.5z" />
<glyph unicode="&#xc0;" horiz-adv-x="1433" d="M-37 0l754 1454h123l348 -1454h-152l-88 362h-645l-186 -362h-154zM377 504h536l-163 739zM510 1866l154 121l213 -375h-142z" />
<glyph unicode="&#xc1;" horiz-adv-x="1433" d="M-37 0l754 1454h123l348 -1454h-152l-88 362h-645l-186 -362h-154zM377 504h536l-163 739zM735 1575l289 369l123 -136l-275 -233h-137z" />
<glyph unicode="&#xc2;" horiz-adv-x="1433" d="M-37 0l754 1454h123l348 -1454h-152l-88 362h-645l-186 -362h-154zM377 504h536l-163 739zM504 1645l256 227h160l188 -227l-88 -60l-201 150l-248 -152z" />
<glyph unicode="&#xc3;" horiz-adv-x="1433" d="M-37 0l754 1454h123l348 -1454h-152l-88 362h-645l-186 -362h-154zM377 504h536l-163 739zM463 1597q25 73 97 128t161 55q58 0 104.5 -14t69.5 -31t48 -31t46 -14q46 0 81 17.5t46 43.5l90 -41q-2 -17 -17.5 -42.5t-42 -52.5t-70.5 -46t-93 -19q-53 0 -101.5 22.5 t-91.5 45t-81 22.5q-115 0 -158 -77z" />
<glyph unicode="&#xc4;" horiz-adv-x="1433" d="M-37 0l754 1454h123l348 -1454h-152l-88 362h-645l-186 -362h-154zM377 504h536l-163 739zM520 1772q6 42 41 72t76 30t68.5 -30t21.5 -72t-42.5 -73.5t-76.5 -31.5t-67 31.5t-21 73.5zM936 1772q6 42 41 72t76 30t68.5 -30t21.5 -72t-42.5 -73.5t-76.5 -31.5t-67 31.5 t-21 73.5z" />
<glyph unicode="&#xc5;" horiz-adv-x="1433" d="M-37 0l754 1454h123l348 -1454h-152l-88 362h-645l-186 -362h-154zM377 504h536l-163 739zM610 1667q10 84 84.5 146.5t153.5 62.5q78 0 134 -62.5t46 -146.5q-12 -84 -86.5 -146.5t-153.5 -62.5t-134.5 62.5t-43.5 146.5zM702 1663q-6 -46 23 -80.5t76 -34.5t86 34.5 t45 80.5q7 47 -22 81t-76 34t-85.5 -34t-46.5 -81z" />
<glyph unicode="&#xc6;" horiz-adv-x="1835" d="M-25 0l871 1452h911l-20 -141h-695l11 -496h561l-21 -156h-534l6 -514h565l-18 -145h-684l-6 367h-564l-215 -367h-168zM436 514h484l-13 762z" />
<glyph unicode="&#xc7;" horiz-adv-x="1290" d="M63 641q17 106 25 166q44 313 224.5 492.5t435.5 179.5q211 0 340 -128.5t141 -353.5h-146q-15 160 -108 249t-248 89q-200 0 -332 -141.5t-166 -386.5l-24 -166q-34 -247 58.5 -381.5t293.5 -134.5q161 0 274.5 87.5t186.5 272.5h141q-75 -232 -227.5 -366.5 t-339.5 -134.5l-10 -80q66 -18 104 -59.5t47 -98.5q9 -54 -13.5 -111.5t-68.5 -95.5q-74 -55 -159 -55q-22 0 -76 12l-119 41l51 109l119 -43q32 -4 47 -4q44 0 68 22q20 17 30.5 45t8.5 51q-5 34 -36.5 58t-121.5 53l-17 4l9 10q0 2 3.5 28t8 58t8.5 58q-224 21 -338 190 t-74 465z" />
<glyph unicode="&#xc8;" horiz-adv-x="1198" d="M0 0l203 1454h897l-21 -149h-755l-70 -490h616l-20 -149h-617l-71 -519h782l-20 -147h-924zM393 1866l154 121l213 -375h-142z" />
<glyph unicode="&#xc9;" horiz-adv-x="1198" d="M0 0l203 1454h897l-21 -149h-755l-70 -490h616l-20 -149h-617l-71 -519h782l-20 -147h-924zM627 1638l288 369l123 -135l-274 -234h-137z" />
<glyph unicode="&#xca;" horiz-adv-x="1198" d="M0 0l203 1454h897l-21 -149h-755l-70 -490h616l-20 -149h-617l-71 -519h782l-20 -147h-924zM401 1706l256 227h160l189 -227l-88 -59l-201 149l-248 -151z" />
<glyph unicode="&#xcb;" horiz-adv-x="1198" d="M0 0l203 1454h897l-21 -149h-755l-70 -490h616l-20 -149h-617l-71 -519h782l-20 -147h-924zM401 1772q6 42 41 72t76 30t68.5 -30t21.5 -72t-42.5 -73.5t-76.5 -31.5t-67 31.5t-21 73.5zM817 1772q6 42 41 72t76 30t68.5 -30t21.5 -72t-42.5 -73.5t-76.5 -31.5t-67 31.5 t-21 73.5z" />
<glyph unicode="&#xcc;" d="M0 0h143l203 1454h-143zM33 1866l153 121l213 -375h-141z" />
<glyph unicode="&#xcd;" d="M0 0l203 1454h143l-203 -1454h-143zM266 1638l289 369l123 -135l-275 -234h-137z" />
<glyph unicode="&#xce;" d="M0 0l203 1454h143l-203 -1454h-143zM41 1706l256 227h160l188 -227l-88 -59l-201 149l-247 -151z" />
<glyph unicode="&#xcf;" d="M0 0l203 1454h143l-203 -1454h-143zM41 1772q6 42 41 72t76 30t68.5 -30t21.5 -72t-42.5 -73.5t-76.5 -31.5t-67 31.5t-21 73.5zM457 1772q6 42 41 72t75 30q41 0 69 -30t22 -72t-42.5 -73.5t-76.5 -31.5t-67 31.5t-21 73.5z" />
<glyph unicode="&#xd0;" horiz-adv-x="1372" d="M27 655l18 131h178l94 666h457q158 0 281 -68.5t164 -185.5q83 -199 49 -448q-17 -116 -43 -210.5t-65.5 -181t-95.5 -150.5t-129.5 -112t-171.5 -72t-218 -24h-430l90 655h-178zM283 154h276q88 0 156 13t137 50.5t118 101.5t89 171.5t61 254.5q13 82 10 149t-12.5 121 t-31 96t-45.5 73.5t-56 54t-62.5 37t-65 22.5t-63 11.5t-57.5 3.5h-291l-75 -527h307l-19 -131h-307z" />
<glyph unicode="&#xd1;" horiz-adv-x="1392" d="M0 0l203 1454h184l598 -1249l174 1249h141l-202 -1454h-183l-598 1255l-176 -1255h-141zM426 1624q25 73 97 127.5t161 54.5q58 0 104.5 -14t69.5 -31t48 -31t46 -14q46 0 81 18t46 44l90 -41q-2 -17 -17.5 -42.5t-42 -52.5t-70.5 -46t-93 -19q-53 0 -101.5 22.5 t-91.5 45t-81 22.5q-114 0 -158 -78z" />
<glyph unicode="&#xd2;" horiz-adv-x="1353" d="M70 641q11 65 24 170q44 308 223 485t431 177q250 0 379 -180t87 -482q-17 -131 -24 -170q-42 -305 -222 -481t-431 -176q-120 0 -215.5 43t-159.5 124.5t-89 207t-3 282.5zM209 641q-34 -244 58 -379t290 -135q196 0 327 136.5t165 377.5l24 170q34 239 -59 379.5 t-287 140.5q-197 0 -328.5 -139t-165.5 -381zM492 1866l153 121l213 -375h-141z" />
<glyph unicode="&#xd3;" horiz-adv-x="1353" d="M70 641q11 65 24 170q44 308 223 485t431 177q250 0 379 -180t87 -482q-17 -131 -24 -170q-42 -305 -222 -481t-431 -176q-120 0 -215.5 43t-159.5 124.5t-89 207t-3 282.5zM209 641q-34 -244 58 -379t290 -135q196 0 327 136.5t165 377.5l24 170q34 239 -59 379.5 t-287 140.5q-197 0 -328.5 -139t-165.5 -381zM705 1638l288 369l123 -135l-274 -234h-137z" />
<glyph unicode="&#xd4;" horiz-adv-x="1353" d="M70 641q11 65 24 170q44 308 223 485t431 177q250 0 379 -180t87 -482q-17 -131 -24 -170q-42 -305 -222 -481t-431 -176q-120 0 -215.5 43t-159.5 124.5t-89 207t-3 282.5zM209 641q-34 -244 58 -379t290 -135q196 0 327 136.5t165 377.5l24 170q34 239 -59 379.5 t-287 140.5q-197 0 -328.5 -139t-165.5 -381zM479 1706l256 227h160l188 -227l-88 -59l-200 149l-248 -151z" />
<glyph unicode="&#xd5;" horiz-adv-x="1353" d="M70 641q11 65 24 170q44 308 223 485t431 177q250 0 379 -180t87 -482q-17 -131 -24 -170q-42 -305 -222 -481t-431 -176q-120 0 -215.5 43t-159.5 124.5t-89 207t-3 282.5zM209 641q-34 -244 58 -379t290 -135q196 0 327 136.5t165 377.5l24 170q34 239 -59 379.5 t-287 140.5q-197 0 -328.5 -139t-165.5 -381zM408 1634q25 73 97 128t161 55q58 0 104.5 -14t69.5 -31.5t48 -31.5t46 -14q46 0 81 18t46 44l90 -41q-2 -17 -17.5 -42.5t-42 -52.5t-70.5 -46t-93 -19q-53 0 -102 22.5t-92 45t-81 22.5q-113 0 -157 -78z" />
<glyph unicode="&#xd6;" horiz-adv-x="1353" d="M70 641q11 65 24 170q44 308 223 485t431 177q250 0 379 -180t87 -482q-17 -131 -24 -170q-42 -305 -222 -481t-431 -176q-120 0 -215.5 43t-159.5 124.5t-89 207t-3 282.5zM209 641q-34 -244 58 -379t290 -135q196 0 327 136.5t165 377.5l24 170q34 239 -59 379.5 t-287 140.5q-197 0 -328.5 -139t-165.5 -381zM469 1694q6 42 41 72t76 30t68.5 -30t21.5 -72t-42.5 -73.5t-76.5 -31.5t-67 31.5t-21 73.5zM885 1694q6 42 41 72t75 30q41 0 69 -30t22 -72t-42.5 -73.5t-76.5 -31.5t-67 31.5t-21 73.5z" />
<glyph unicode="&#xd7;" horiz-adv-x="915" d="M33 381l293 258l-224 258l115 102l223 -260l295 258l86 -100l-293 -258l222 -258l-115 -102l-223 258l-293 -258z" />
<glyph unicode="&#xd8;" horiz-adv-x="1323" d="M61 20l99 140q-137 177 -92 489q11 86 24 170q42 308 221 484t430 176q162 0 283 -82l86 119l107 -66l-101 -143q137 -181 94 -488q-10 -56 -24 -170q-42 -305 -222 -482t-431 -177q-161 0 -285 82l-80 -117zM209 649q-30 -222 43 -358l688 983q-87 65 -217 65 q-197 0 -326.5 -138.5t-163.5 -381.5zM338 197q90 -64 217 -64q195 0 326.5 137.5t165.5 378.5l24 170q30 214 -45 357z" />
<glyph unicode="&#xd9;" horiz-adv-x="1351" d="M86 612q2 18 58.5 424t58.5 418h141l-117 -842q-35 -244 42.5 -367.5t254.5 -123.5q363 0 434 491l117 842h144q-2 -22 -59 -432l-58 -410q-44 -315 -195 -475t-403 -160q-245 0 -354 158t-64 477zM469 1866l154 121l213 -375h-142z" />
<glyph unicode="&#xda;" horiz-adv-x="1351" d="M86 612q2 18 58.5 424t58.5 418h141l-117 -842q-35 -244 42.5 -367.5t254.5 -123.5q363 0 434 491l117 842h144q-2 -22 -59 -432l-58 -410q-44 -315 -195 -475t-403 -160q-245 0 -354 158t-64 477zM702 1638l289 369l123 -135l-274 -234h-138z" />
<glyph unicode="&#xdb;" horiz-adv-x="1351" d="M86 612q2 18 58.5 424t58.5 418h141l-117 -842q-35 -244 42.5 -367.5t254.5 -123.5q363 0 434 491l117 842h144q-2 -22 -59 -432l-58 -410q-44 -315 -195 -475t-403 -160q-245 0 -354 158t-64 477zM477 1706l256 227h160l188 -227l-88 -59l-200 149l-248 -151z" />
<glyph unicode="&#xdc;" horiz-adv-x="1351" d="M86 612q2 18 58.5 424t58.5 418h141l-117 -842q-35 -244 42.5 -367.5t254.5 -123.5q363 0 434 491l117 842h144q-2 -22 -59 -432l-58 -410q-44 -315 -195 -475t-403 -160q-245 0 -354 158t-64 477zM451 1726q6 42 41 72.5t75 30.5q41 0 68.5 -30.5t21.5 -72.5t-42 -73 t-76 -31t-67 31t-21 73zM866 1726q6 42 41.5 72.5t75.5 30.5q41 0 68.5 -30.5t21.5 -72.5t-42.5 -73t-76.5 -31t-67 31t-21 73z" />
<glyph unicode="&#xdd;" horiz-adv-x="1288" d="M154 1454h161l299 -717l498 717h164l-612 -879l-80 -575h-144l80 575zM602 1544l289 369l123 -135l-275 -234h-137z" />
<glyph unicode="&#xde;" horiz-adv-x="1187" d="M0 0l203 1454h143l-41 -289h369q205 0 325 -123.5t93 -316.5q-18 -128 -95.5 -229.5t-194.5 -157t-251 -55.5h-369l-39 -283h-143zM203 428h368q143 0 250 91t123 206q16 114 -66 204.5t-225 90.5h-368z" />
<glyph unicode="&#xdf;" horiz-adv-x="1075" d="M0 0l145 1040q27 191 140.5 308.5t287.5 117.5q176 0 266 -112.5t64 -294.5q-5 -38 -18 -78t-35 -80.5t-56.5 -70.5t-76.5 -39q99 -12 159 -109t42 -229l-9 -54q-28 -191 -149 -295t-320 -104h-92l19 145h92q136 0 208 62t91 192l8 54q3 35 3.5 67.5t-13 61.5t-38.5 51.5 t-73.5 38.5t-118.5 22q-13 1 -21 2t-23 5.5t-23 11.5t-13.5 21.5t-3.5 33.5q5 30 23 50.5t33.5 26.5t31.5 9q61 10 106 37t68.5 62t34.5 64t15 58q17 123 -41.5 181.5t-159.5 58.5q-93 0 -167.5 -73t-92.5 -202l-146 -1040h-147z" />
<glyph unicode="&#xe0;" horiz-adv-x="1107" d="M18 254q-14 -108 64 -189t211 -81h47q107 0 202.5 36.5t145.5 98.5l-16 -119h141l92 668q6 59 4.5 105.5t-18 83t-35.5 63t-48 45.5t-57 31.5t-61.5 19.5t-60.5 9.5t-56 2.5q-108 0 -212.5 -30.5t-215.5 -118.5l74 -113q26 23 48 38.5t63 37t96.5 32.5t122.5 11 q74 0 123.5 -20.5t69 -53.5t25 -62t1.5 -59q-1 -8 -5 -38t-5 -38h-246q-211 0 -339 -85.5t-150 -237.5q0 -12 -5 -37zM152 272q0 2 1 7t1 6q13 101 98 146.5t250 45.5h235l-12 -94q-16 -114 -117 -190t-256 -76h-26q-95 0 -138.5 47t-35.5 108zM287 1419l153 121l213 -375 h-141z" />
<glyph unicode="&#xe1;" horiz-adv-x="1107" d="M18 254q5 25 5 37q22 152 150 237.5t339 85.5h246q1 8 5 38t5 38q4 30 -1.5 59t-25 62t-69 53.5t-123.5 20.5q-67 0 -122.5 -11t-96.5 -32.5t-63 -37t-48 -38.5l-74 113q111 88 215.5 118.5t212.5 30.5q48 0 92.5 -7t96.5 -30t86.5 -60.5t52 -105.5t4.5 -157 q-90 -631 -92 -668h-141l16 119q-50 -62 -145.5 -98.5t-202.5 -36.5h-47q-133 0 -211 81t-64 189zM152 272q-8 -61 35.5 -108t138.5 -47h26q155 0 256 76t117 190l12 94h-235q-165 0 -250 -45.5t-98 -146.5q0 -1 -1 -6t-1 -7zM520 1192l289 369l123 -136l-275 -233h-137z " />
<glyph unicode="&#xe2;" horiz-adv-x="1107" d="M18 254q5 25 5 37q22 152 150 237.5t339 85.5h246q1 8 5 38t5 38q4 30 -1.5 59t-25 62t-69 53.5t-123.5 20.5q-67 0 -122.5 -11t-96.5 -32.5t-63 -37t-48 -38.5l-74 113q111 88 215.5 118.5t212.5 30.5q48 0 92.5 -7t96.5 -30t86.5 -60.5t52 -105.5t4.5 -157 q-90 -631 -92 -668h-141l16 119q-50 -62 -145.5 -98.5t-202.5 -36.5h-47q-133 0 -211 81t-64 189zM152 272q-8 -61 35.5 -108t138.5 -47h26q155 0 256 76t117 190l12 94h-235q-165 0 -250 -45.5t-98 -146.5q0 -1 -1 -6t-1 -7zM295 1260l256 227h160l188 -227l-88 -60 l-201 150l-248 -152z" />
<glyph unicode="&#xe3;" horiz-adv-x="1107" d="M18 254q5 25 5 37q22 152 150 237.5t339 85.5h246q1 8 5 38t5 38q4 30 -1.5 59t-25 62t-69 53.5t-123.5 20.5q-67 0 -122.5 -11t-96.5 -32.5t-63 -37t-48 -38.5l-74 113q111 88 215.5 118.5t212.5 30.5q48 0 92.5 -7t96.5 -30t86.5 -60.5t52 -105.5t4.5 -157 q-90 -631 -92 -668h-141l16 119q-50 -62 -145.5 -98.5t-202.5 -36.5h-47q-133 0 -211 81t-64 189zM152 272q-8 -61 35.5 -108t138.5 -47h26q155 0 256 76t117 190l12 94h-235q-165 0 -250 -45.5t-98 -146.5q0 -1 -1 -6t-1 -7zM225 1274q25 73 97 127.5t161 54.5 q58 0 104.5 -14t70 -31t48.5 -31t46 -14q46 0 81 17.5t46 43.5l90 -41q-4 -43 -67.5 -101t-156.5 -58q-53 0 -101.5 22.5t-91.5 45t-81 22.5q-114 0 -158 -78z" />
<glyph unicode="&#xe4;" horiz-adv-x="1107" d="M18 254q5 25 5 37q22 152 150 237.5t339 85.5h246q1 8 5 38t5 38q4 30 -1.5 59t-25 62t-69 53.5t-123.5 20.5q-67 0 -122.5 -11t-96.5 -32.5t-63 -37t-48 -38.5l-74 113q111 88 215.5 118.5t212.5 30.5q48 0 92.5 -7t96.5 -30t86.5 -60.5t52 -105.5t4.5 -157 q-90 -631 -92 -668h-141l16 119q-50 -62 -145.5 -98.5t-202.5 -36.5h-47q-133 0 -211 81t-64 189zM152 272q-8 -61 35.5 -108t138.5 -47h26q155 0 256 76t117 190l12 94h-235q-165 0 -250 -45.5t-98 -146.5q0 -1 -1 -6t-1 -7zM295 1325q6 42 41 72t76 30t68.5 -30t21.5 -72 t-42.5 -73t-76.5 -31t-67 31t-21 73zM711 1325q6 42 41 72t75 30q41 0 69 -30t22 -72t-42.5 -73t-76.5 -31t-67 31t-21 73z" />
<glyph unicode="&#xe5;" horiz-adv-x="1107" d="M18 254q5 25 5 37q22 152 150 237.5t339 85.5h246q1 8 5 38t5 38q4 30 -1.5 59t-25 62t-69 53.5t-123.5 20.5q-67 0 -122.5 -11t-96.5 -32.5t-63 -37t-48 -38.5l-74 113q111 88 215.5 118.5t212.5 30.5q48 0 92.5 -7t96.5 -30t86.5 -60.5t52 -105.5t4.5 -157 q-90 -631 -92 -668h-141l16 119q-50 -62 -145.5 -98.5t-202.5 -36.5h-47q-133 0 -211 81t-64 189zM152 272q-8 -61 35.5 -108t138.5 -47h26q155 0 256 76t117 190l12 94h-235q-165 0 -250 -45.5t-98 -146.5q0 -1 -1 -6t-1 -7zM389 1239q10 84 84.5 146.5t153.5 62.5 q78 0 134 -62.5t46 -146.5q-12 -84 -86.5 -146.5t-153.5 -62.5t-134.5 62.5t-43.5 146.5zM481 1235q-6 -46 23 -80.5t76 -34.5t86 34.5t45 80.5q7 47 -22.5 81t-76.5 34t-85 -34t-46 -81z" />
<glyph unicode="&#xe6;" horiz-adv-x="1796" d="M20 213q10 232 203 315q79 32 192.5 48t354.5 16q9 83 11 147.5t-51.5 104t-172.5 39.5q-210 0 -330 -115l-73 109q192 151 428 151q36 0 73 -5t78.5 -19t73.5 -35t54.5 -57t25.5 -81q39 80 143.5 139.5t243.5 59.5q99 0 174.5 -33.5t125.5 -104t62.5 -179t-14.5 -258.5 h-739q-14 -148 58.5 -240t221.5 -92q228 0 320 141l98 -94q-76 -80 -149.5 -123t-192.5 -59q-8 -1 -21 -2.5t-52 -2.5t-76 2.5t-84.5 16t-86 33.5t-73 60t-51.5 91q-7 14 -7 25q-33 -41 -57.5 -68t-70 -61.5t-94.5 -55t-123.5 -35t-163.5 -14.5q-71 0 -124 22.5t-81.5 58.5 t-41.5 75.5t-12 79.5zM155.5 197q11.5 -34 33.5 -53t62 -25t83 -2.5t96 14.5q49 11 98.5 33t96 55.5t79.5 84t41 108.5l5 37q-323 0 -445 -31.5t-147 -134.5q-14 -52 -2.5 -86zM903 594h590q18 122 -29 199t-155 94q-92 15 -177 -11.5t-149 -99.5t-80 -182z" />
<glyph unicode="&#xe7;" horiz-adv-x="1110" d="M39 451q3 21 7 48.5t7 49.5q30 213 176.5 346t331.5 133q125 0 217.5 -66.5t130.5 -183.5l-137 -57q-27 77 -87.5 120.5t-147.5 43.5q-131 0 -224.5 -93t-115.5 -243l-15 -98q-10 -78 7 -143t53.5 -106t85 -63t102.5 -22q199 0 291 145l123 -57q-141 -215 -408 -225 l-4 -70q133 -39 152 -158q9 -54 -13.5 -110t-68.5 -93q-74 -55 -158 -55q-37 0 -72 14l-120 39l51 109l116 -43q6 -1 21.5 -4.5t24.5 -3.5q41 0 69 26q41 33 37 93q-5 34 -36 57.5t-120 52.5l-14 2l6 12q10 62 21 138q-144 31 -229 155t-60 310z" />
<glyph unicode="&#xe8;" horiz-adv-x="1130" d="M43 453q3 22 6 49.5t6 48.5q32 217 176.5 349t333.5 132q186 0 293.5 -134.5t77.5 -346.5q-5 -51 -14 -111h-738q-8 -75 13.5 -138t63 -102.5t93.5 -61t107 -21.5q107 0 179 25.5t132 101.5l98 -86q-88 -101 -191.5 -142t-238.5 -41q-82 0 -159 33t-136 92t-88 151.5 t-14 201.5zM203 571h596q17 142 -54.5 230t-199.5 88q-133 0 -226 -85.5t-116 -232.5zM360 1440l154 121l213 -375h-141z" />
<glyph unicode="&#xe9;" horiz-adv-x="1130" d="M43 453q3 22 6 49.5t6 48.5q32 217 176.5 349t333.5 132q186 0 293.5 -134.5t77.5 -346.5q-5 -51 -14 -111h-738q-8 -75 13.5 -138t63 -102.5t93.5 -61t107 -21.5q107 0 179 25.5t132 101.5l98 -86q-88 -101 -191.5 -142t-238.5 -41q-82 0 -159 33t-136 92t-88 151.5 t-14 201.5zM203 571h596q17 142 -54.5 230t-199.5 88q-133 0 -226 -85.5t-116 -232.5zM530 1192l289 369l123 -136l-274 -233h-138z" />
<glyph unicode="&#xea;" horiz-adv-x="1130" d="M43 453q3 22 6 49.5t6 48.5q32 217 176.5 349t333.5 132q186 0 293.5 -134.5t77.5 -346.5q-5 -51 -14 -111h-738q-8 -75 13.5 -138t63 -102.5t93.5 -61t107 -21.5q107 0 179 25.5t132 101.5l98 -86q-88 -101 -191.5 -142t-238.5 -41q-82 0 -159 33t-136 92t-88 151.5 t-14 201.5zM203 571h596q17 142 -54.5 230t-199.5 88q-133 0 -226 -85.5t-116 -232.5zM305 1260l256 227h160l188 -227l-88 -60l-200 150l-248 -152z" />
<glyph unicode="&#xeb;" horiz-adv-x="1130" d="M43 453q3 22 6 49.5t6 48.5q32 217 176.5 349t333.5 132q186 0 293.5 -134.5t77.5 -346.5q-5 -51 -14 -111h-738q-8 -75 13.5 -138t63 -102.5t93.5 -61t107 -21.5q107 0 179 25.5t132 101.5l98 -86q-88 -101 -191.5 -142t-238.5 -41q-82 0 -159 33t-136 92t-88 151.5 t-14 201.5zM203 571h596q17 142 -54.5 230t-199.5 88q-133 0 -226 -85.5t-116 -232.5zM307 1325q6 42 41 72t76 30t68.5 -30t21.5 -72t-42.5 -73t-76.5 -31t-67 31t-21 73zM723 1325q6 42 41 72t76 30t68.5 -30t21.5 -72t-42.5 -73t-76.5 -31t-67 31t-21 73z" />
<glyph unicode="&#xec;" d="M-51 1419l153 121l213 -375h-141zM0 -2h154l143 1010h-156z" />
<glyph unicode="&#xed;" d="M0 -2l141 1010h156l-143 -1010h-154zM164 1192l289 369l122 -136l-274 -233h-137z" />
<glyph unicode="&#xee;" d="M0 -2l141 1010h156l-143 -1010h-154zM49 1243l152 227h159l86 -227l-110 -74l-76 150l-125 -152z" />
<glyph unicode="&#xef;" d="M-23 1325q6 42 41 72t76 30t68.5 -30t21.5 -72t-42 -73t-76 -31t-67.5 31t-21.5 73zM0 -2l141 1010h156l-143 -1010h-154zM393 1325q6 42 41 72t76 30t68.5 -30t21.5 -72t-42.5 -73t-76.5 -31t-67 31t-21 73z" />
<glyph unicode="&#xf0;" horiz-adv-x="1095" d="M41 453q3 21 6 48t6 48q30 214 173.5 344.5t328.5 130.5q133 0 225 -68q-30 158 -114 275l-127 -111l-54 62l129 112q-50 57 -106 101l96 118q77 -61 127 -116l115 102l51 -63l-115 -101q109 -146 144.5 -335.5t1.5 -440.5v-10q-1 -8 -6.5 -45t-6.5 -51 q-13 -90 -49.5 -168t-87.5 -133t-113 -94.5t-127.5 -58.5t-129.5 -19q-80 0 -152 32.5t-126 91t-79 150t-10 199.5zM180 453q-11 -78 6 -142.5t53.5 -105.5t85.5 -63.5t103 -22.5q48 0 100 19t103 56.5t90 105t51 153.5l12 96q20 145 -50.5 240.5t-198.5 95.5 q-130 0 -225 -94t-117 -242z" />
<glyph unicode="&#xf1;" horiz-adv-x="1120" d="M0 0l141 1008h142l-19 -134q35 72 128 116t186 44q194 0 284.5 -130.5t59.5 -350.5q0 -6 -37.5 -275.5t-38.5 -277.5h-144l76 553q23 155 -34 250.5t-191 95.5q-131 0 -222.5 -96t-113.5 -250l-76 -553h-141zM227 1280q25 73 97 127.5t161 54.5q58 0 104.5 -14t70 -31 t48.5 -31t46 -14q46 0 81 18t46 44l90 -41q-2 -17 -17.5 -42.5t-42 -52.5t-70.5 -46t-93 -19q-53 0 -102 22.5t-92 45t-81 22.5q-114 0 -158 -78z" />
<glyph unicode="&#xf2;" horiz-adv-x="1140" d="M49 455q3 22 6 49.5t6 48.5q32 215 175 346t329 131q184 0 292.5 -133.5t78.5 -343.5q-1 -7 -6 -45.5t-6 -52.5q-16 -112 -68 -204.5t-123 -149.5t-152.5 -88t-162.5 -31t-153.5 32.5t-126.5 90.5t-79.5 149.5t-9.5 200.5zM188 455q-22 -152 56 -243t194 -91 q37 0 77.5 11t84 37t79.5 63.5t63.5 95t37.5 127.5l13 98q22 144 -49 240t-199 96q-132 0 -227 -93t-117 -243zM303 1419l154 121l213 -375h-142z" />
<glyph unicode="&#xf3;" horiz-adv-x="1140" d="M49 455q3 22 6 49.5t6 48.5q32 215 175 346t329 131q184 0 292.5 -133.5t78.5 -343.5q-1 -7 -6 -45.5t-6 -52.5q-16 -112 -68 -204.5t-123 -149.5t-152.5 -88t-162.5 -31t-153.5 32.5t-126.5 90.5t-79.5 149.5t-9.5 200.5zM188 455q-22 -152 56 -243t194 -91 q37 0 77.5 11t84 37t79.5 63.5t63.5 95t37.5 127.5l13 98q22 144 -49 240t-199 96q-132 0 -227 -93t-117 -243zM537 1192l288 369l123 -136l-274 -233h-137z" />
<glyph unicode="&#xf4;" horiz-adv-x="1140" d="M49 455q3 22 6 49.5t6 48.5q32 215 175 346t329 131q184 0 292.5 -133.5t78.5 -343.5q-1 -7 -6 -45.5t-6 -52.5q-16 -112 -68 -204.5t-123 -149.5t-152.5 -88t-162.5 -31t-153.5 32.5t-126.5 90.5t-79.5 149.5t-9.5 200.5zM188 455q-22 -152 56 -243t194 -91 q37 0 77.5 11t84 37t79.5 63.5t63.5 95t37.5 127.5l13 98q22 144 -49 240t-199 96q-132 0 -227 -93t-117 -243zM311 1260l256 227h160l188 -227l-88 -60l-200 150l-248 -152z" />
<glyph unicode="&#xf5;" horiz-adv-x="1140" d="M49 455q3 22 6 49.5t6 48.5q32 215 175 346t329 131q184 0 292.5 -133.5t78.5 -343.5q-1 -7 -6 -45.5t-6 -52.5q-16 -112 -68 -204.5t-123 -149.5t-152.5 -88t-162.5 -31t-153.5 32.5t-126.5 90.5t-79.5 149.5t-9.5 200.5zM188 455q-22 -152 56 -243t194 -91 q37 0 77.5 11t84 37t79.5 63.5t63.5 95t37.5 127.5l13 98q22 144 -49 240t-199 96q-132 0 -227 -93t-117 -243zM258 1214q25 73 97 128t161 55q58 0 104.5 -14t69.5 -31t48 -31t46 -14q46 0 81 17.5t46 43.5l90 -41q-2 -17 -17.5 -42.5t-42 -52.5t-70.5 -46t-93 -19 q-53 0 -101.5 22.5t-91.5 45t-81 22.5q-115 0 -158 -77z" />
<glyph unicode="&#xf6;" horiz-adv-x="1140" d="M49 455q3 22 6 49.5t6 48.5q32 215 175 346t329 131q184 0 292.5 -133.5t78.5 -343.5q-1 -7 -6 -45.5t-6 -52.5q-16 -112 -68 -204.5t-123 -149.5t-152.5 -88t-162.5 -31t-153.5 32.5t-126.5 90.5t-79.5 149.5t-9.5 200.5zM188 455q-22 -152 56 -243t194 -91 q37 0 77.5 11t84 37t79.5 63.5t63.5 95t37.5 127.5l13 98q22 144 -49 240t-199 96q-132 0 -227 -93t-117 -243zM311 1325q6 42 41 72t76 30t68.5 -30t21.5 -72t-42.5 -73t-76.5 -31t-67 31t-21 73zM727 1325q6 42 41 72t76 30t68.5 -30t21.5 -72t-42.5 -73t-76.5 -31t-67 31 t-21 73z" />
<glyph unicode="&#xf7;" horiz-adv-x="1171" d="M98 608l21 142h975l-21 -142h-975zM420 317q7 48 47.5 82.5t85.5 34.5q46 0 77.5 -34.5t24.5 -82.5q-6 -48 -47.5 -83t-87.5 -35q-45 0 -74.5 34.5t-25.5 83.5zM520 1026q6 48 46.5 82.5t86.5 34.5q45 0 77 -34.5t26 -82.5q-7 -49 -48.5 -84t-86.5 -35t-76.5 35.5 t-24.5 83.5z" />
<glyph unicode="&#xf8;" horiz-adv-x="1085" d="M37 -33l96 137q-121 135 -88 351q3 22 6 49.5t6 48.5q21 143 95.5 252t181 166t227.5 57q107 0 189 -43l86 123l106 -68l-96 -137q118 -131 88 -350q-1 -11 -6 -48t-6 -50q-16 -113 -68 -205.5t-124 -150t-153.5 -88.5t-162.5 -31q-100 0 -183 47l-86 -125zM184 455 q-18 -134 41 -222l437 627q-56 29 -121 29q-132 0 -227 -93t-117 -243zM317 147q58 -28 117 -28q37 0 78 11.5t84.5 37.5t79.5 64t64 95.5t38 127.5l13 98q18 125 -39 217z" />
<glyph unicode="&#xf9;" horiz-adv-x="1144" d="M63 459q0 2 38 269.5t40 279.5h144l-78 -549q-21 -154 34.5 -249t190.5 -95q131 0 223.5 96t114.5 248l78 549h141v-2l-80 -555l-61 -451h-141l18 139q-36 -73 -130.5 -117.5t-186.5 -44.5q-194 0 -285 131.5t-60 350.5zM305 1419l154 121l213 -375h-142z" />
<glyph unicode="&#xfa;" horiz-adv-x="1144" d="M63 459q0 2 38 269.5t40 279.5h144l-78 -549q-21 -154 34.5 -249t190.5 -95q131 0 223.5 96t114.5 248l78 549h141v-2l-80 -555l-61 -451h-141l18 139q-36 -73 -130.5 -117.5t-186.5 -44.5q-194 0 -285 131.5t-60 350.5zM539 1192l288 369l123 -136l-274 -233h-137z" />
<glyph unicode="&#xfb;" horiz-adv-x="1144" d="M63 459q0 2 38 269.5t40 279.5h144l-78 -549q-21 -154 34.5 -249t190.5 -95q131 0 223.5 96t114.5 248l78 549h141v-2l-80 -555l-61 -451h-141l18 139q-36 -73 -130.5 -117.5t-186.5 -44.5q-194 0 -285 131.5t-60 350.5zM313 1260l256 227h160l189 -227l-89 -60l-200 150 l-248 -152z" />
<glyph unicode="&#xfc;" horiz-adv-x="1144" d="M63 459q0 2 38 269.5t40 279.5h144l-78 -549q-21 -154 34.5 -249t190.5 -95q131 0 223.5 96t114.5 248l78 549h141v-2l-80 -555l-61 -451h-141l18 139q-36 -73 -130.5 -117.5t-186.5 -44.5q-194 0 -285 131.5t-60 350.5zM313 1325q6 42 41 72t76 30t68.5 -30t21.5 -72 t-42.5 -73t-76.5 -31t-67 31t-21 73zM729 1325q6 42 41 72t76 30t68.5 -30t21.5 -72t-42.5 -73t-76.5 -31t-67 31t-21 73z" />
<glyph unicode="&#xfd;" horiz-adv-x="1105" d="M-20 -371l57 138q52 -16 90 -18t63.5 5t46.5 29t36 46t36 64q3 5 4.5 8l4 8l4.5 9l38 78l-245 1012h157l197 -811l424 811h160q-580 -1096 -639 -1209q-45 -77 -95 -123t-105.5 -61t-110.5 -11t-123 25zM467 1147l289 369l123 -136l-275 -233h-137z" />
<glyph unicode="&#xfe;" horiz-adv-x="1054" d="M-59 -434l262 1888h141l-80 -569q57 71 143.5 109t167.5 38q79 0 151 -32.5t126 -91t79 -150.5t9 -201q-8 -52 -14 -102q-30 -214 -173 -344.5t-325 -130.5q-90 0 -167 44t-99 123l-82 -581h-139zM199 455q-22 -146 47.5 -239t197.5 -93q130 0 222 91t114 241l15 102 q11 79 -5.5 144t-52.5 105.5t-84 62.5t-100 22q-117 0 -217.5 -89.5t-122.5 -244.5z" />
<glyph unicode="&#xff;" horiz-adv-x="1105" d="M-20 -371l57 138q52 -16 90 -18t63.5 5t46.5 29t36 46t36 64q3 5 4.5 8l4 8l4.5 9l38 78l-245 1012h157l197 -811l424 811h160q-580 -1096 -639 -1209q-45 -77 -95 -123t-105.5 -61t-110.5 -11t-123 25zM295 1325q6 42 41 72t76 30t68.5 -30t21.5 -72t-42.5 -73 t-76.5 -31t-67 31t-21 73zM711 1325q6 42 41 72t75 30q41 0 69 -30t22 -72t-42.5 -73t-76.5 -31t-67 31t-21 73z" />
<glyph unicode="&#x152;" horiz-adv-x="2086" d="M70 643q4 32 11 86.5t11 85.5q44 306 224.5 484t433.5 178q135 0 240.5 -60t164.5 -168l29 207h895l-21 -147h-755l-70 -494h616l-20 -147h-617l-71 -518h784l-20 -150h-924l29 209q-89 -107 -211 -165t-258 -58q-250 0 -382.5 173.5t-88.5 483.5zM213 643 q-35 -244 55.5 -379t290.5 -135q194 0 327.5 137t166.5 377l22 172q34 236 -60 377t-286 141q-198 0 -328 -137.5t-165 -380.5z" />
<glyph unicode="&#x153;" horiz-adv-x="1865" d="M37 451q3 21 7 48.5t7 49.5q30 215 175 347t331 132q77 0 150 -29t125 -84t61 -122q26 67 93.5 122.5t152 85t164.5 29.5q185 0 292.5 -135t77.5 -348q-1 -9 -16 -111h-739q-6 -75 15.5 -138t62 -102.5t92 -61t106.5 -21.5q108 0 180.5 25.5t132.5 99.5l101 -86 q-92 -100 -195.5 -141.5t-238.5 -41.5q-73 0 -148 29.5t-133.5 89t-73.5 133.5q-34 -74 -106 -132t-151 -86t-152 -28q-81 0 -154 32.5t-127 91.5t-80 150.5t-12 201.5zM176 451q-10 -78 7 -143t54.5 -106t87 -64t103.5 -23q37 0 78 11.5t84.5 37.5t79.5 64t63.5 95.5 t36.5 127.5l14 98q20 145 -50.5 240.5t-196.5 95.5q-132 0 -228.5 -93t-118.5 -243zM936 567h596q20 141 -50.5 229.5t-199.5 88.5q-134 0 -227 -84.5t-119 -233.5z" />
<glyph unicode="&#x178;" horiz-adv-x="1288" d="M154 1454h161l299 -717l498 717h164l-612 -879l-80 -575h-144l80 575zM444 1712q6 42 41.5 72.5t75.5 30.5q41 0 68.5 -30.5t21.5 -72.5t-42.5 -73t-76.5 -31t-67 31t-21 73zM860 1712q6 42 41.5 72.5t75.5 30.5q41 0 68.5 -30.5t21.5 -72.5t-42.5 -73t-76.5 -31t-67 31 t-21 73z" />
<glyph unicode="&#x2c6;" horiz-adv-x="663" d="M66 1260l256 227h159l189 -227l-88 -60l-201 150l-248 -152z" />
<glyph unicode="&#x2dc;" horiz-adv-x="632" d="M82 1184q25 73 97 127.5t161 54.5q58 0 104.5 -14t69.5 -31t48 -31t46 -14q46 0 81 17.5t46 43.5l90 -41q-4 -43 -67 -101t-156 -58q-53 0 -101.5 22.5t-91.5 45t-81 22.5q-114 0 -158 -78z" />
<glyph unicode="&#x2000;" horiz-adv-x="1003" />
<glyph unicode="&#x2001;" horiz-adv-x="2007" />
<glyph unicode="&#x2002;" horiz-adv-x="1003" />
<glyph unicode="&#x2003;" horiz-adv-x="2007" />
<glyph unicode="&#x2004;" horiz-adv-x="669" />
<glyph unicode="&#x2005;" horiz-adv-x="501" />
<glyph unicode="&#x2006;" horiz-adv-x="334" />
<glyph unicode="&#x2007;" horiz-adv-x="334" />
<glyph unicode="&#x2008;" horiz-adv-x="250" />
<glyph unicode="&#x2009;" horiz-adv-x="401" />
<glyph unicode="&#x200a;" horiz-adv-x="111" />
<glyph unicode="&#x2010;" horiz-adv-x="1099" d="M72 522l18 131h791l-19 -131h-790z" />
<glyph unicode="&#x2011;" horiz-adv-x="1099" d="M72 522l18 131h791l-19 -131h-790z" />
<glyph unicode="&#x2012;" horiz-adv-x="1099" d="M72 522l18 131h791l-19 -131h-790z" />
<glyph unicode="&#x2013;" horiz-adv-x="1093" d="M70 510l20 141h975l-21 -141h-974z" />
<glyph unicode="&#x2014;" horiz-adv-x="1538" d="M70 510l20 143h1241l-20 -143h-1241z" />
<glyph unicode="&#x2018;" horiz-adv-x="409" d="M160 1137q1 15 5 27.5t7.5 19.5t11.5 21t13 24l129 225h65q-35 -256 -43 -317q-8 -49 -36 -79t-70 -30q-41 0 -65 31.5t-17 77.5z" />
<glyph unicode="&#x2019;" horiz-adv-x="409" d="M147 1057q38 256 46 317q6 48 34 78.5t70 30.5q41 0 65.5 -31.5t18.5 -77.5q-8 -55 -35 -108l-92 -209h-107z" />
<glyph unicode="&#x201a;" horiz-adv-x="452" d="M-10 -74q2 15 6 27.5t7 19t11 21.5t13 24l129 226h65q-35 -257 -45 -318q-6 -48 -34 -78t-70 -30q-41 0 -64.5 31t-17.5 77z" />
<glyph unicode="&#x201c;" horiz-adv-x="753" d="M160 1137q1 15 5 27.5t7.5 19.5t11.5 21t13 24l129 225h65q-35 -256 -43 -317q-8 -49 -36 -79t-70 -30q-41 0 -65 31.5t-17 77.5zM489 1137q1 15 5 27.5t7.5 19.5t11.5 21t13 24l129 225h66q-35 -256 -43 -317q-8 -48 -36.5 -78.5t-70.5 -30.5q-41 0 -65 31.5t-17 77.5z " />
<glyph unicode="&#x201d;" horiz-adv-x="778" d="M150 1069q35 256 45 317q6 48 34 78.5t70 30.5q41 0 65.5 -31.5t18.5 -77.5q-2 -15 -6 -28.5t-7.5 -20.5t-12.5 -22.5t-13 -24.5l-129 -221h-65zM479 1069q35 256 45 317q6 48 34.5 78.5t70.5 30.5q41 0 65.5 -31.5t18.5 -77.5q-2 -15 -6 -28.5t-7.5 -20.5t-12.5 -22.5 t-13 -24.5l-129 -221h-66z" />
<glyph unicode="&#x201e;" horiz-adv-x="759" d="M-10 -74q2 15 6 27.5t7 19t11 21.5t13 24l129 226h65q-35 -257 -45 -318q-6 -48 -34 -78t-70 -30q-41 0 -64.5 31t-17.5 77zM330 -74q2 15 6 27.5t8 19.5t12 20.5t13 24.5l129 226h65q-35 -257 -45 -318q-6 -48 -34 -78t-70 -30q-41 0 -65.5 31t-18.5 77z" />
<glyph unicode="&#x2022;" horiz-adv-x="610" d="M109 776q9 66 67 116t121 50q62 0 105 -49.5t34 -116.5q-9 -66 -65 -114t-119 -48t-107.5 48t-35.5 114z" />
<glyph unicode="&#x2026;" horiz-adv-x="1239" d="M0 102q4 48 44.5 82.5t86.5 34.5q45 0 76.5 -34.5t25.5 -82.5q-7 -48 -49 -83t-88 -35q-45 0 -74 34.5t-22 83.5zM430 102q6 48 46.5 82.5t86.5 34.5q45 0 77 -34.5t26 -82.5q-7 -48 -49.5 -83t-88.5 -35q-45 0 -75 34.5t-23 83.5zM846 102q6 48 46.5 82.5t86.5 34.5 q45 0 76.5 -34.5t25.5 -82.5q-7 -48 -49 -83t-88 -35q-45 0 -75 34.5t-23 83.5z" />
<glyph unicode="&#x202f;" horiz-adv-x="401" />
<glyph unicode="&#x2039;" horiz-adv-x="768" d="M45 510l14 90l492 432l78 -92l-436 -385l327 -381l-102 -94z" />
<glyph unicode="&#x203a;" horiz-adv-x="755" d="M37 174l438 381l-330 385l103 92l373 -432l-15 -90l-491 -430z" />
<glyph unicode="&#x205f;" horiz-adv-x="501" />
<glyph unicode="&#x20ac;" horiz-adv-x="1454" d="M-31 514v2l70 133h166q2 13 5 42t5 42q1 6 3 18.5t3 18.5h-209l76 137h166q79 261 274 416t473 154q291 -2 426 -195l-73 -127q-73 81 -161.5 125.5t-211.5 44.5q-202 1 -346 -113t-213 -305h795l-74 -137h-758q0 -13 -4 -37q-9 -69 -10 -84h700l-72 -135h-622 q14 -172 123 -278.5t301 -106.5q104 0 190.5 25t192.5 79l-25 -170q-159 -88 -391 -88q-131 0 -235.5 40t-173 112.5t-107.5 170t-47 216.5h-236z" />
<glyph unicode="&#x25fc;" horiz-adv-x="1003" d="M0 0v1004h1004v-1004h-1004z" />
</font>
</defs>
</svg>
