<?xml version="1.0" standalone="no"?>
<!DOCTYPE svg PUBLIC "-//W3C//DTD SVG 1.1//EN" "http://www.w3.org/Graphics/SVG/1.1/DTD/svg11.dtd" >
<svg xmlns="http://www.w3.org/2000/svg" xmlns:xlink="http://www.w3.org/1999/xlink" version="1.1">
<metadata></metadata>
<defs>
<font id="klimaregular" horiz-adv-x="471" >
<font-face units-per-em="2048" ascent="1565" descent="-483" />
<missing-glyph horiz-adv-x="409" />
<glyph horiz-adv-x="0" />
<glyph horiz-adv-x="682" />
<glyph horiz-adv-x="0" />
<glyph unicode="&#x9;" horiz-adv-x="600" />
<glyph unicode="&#xd;" horiz-adv-x="409" />
<glyph unicode=" "  horiz-adv-x="409" />
<glyph unicode="&#x09;" horiz-adv-x="409" />
<glyph unicode="&#xa0;" horiz-adv-x="409" />
<glyph unicode="!" horiz-adv-x="399" d="M-14 102q0 48 35.5 82.5t80.5 34.5q46 0 82.5 -34.5t36.5 -82.5t-36.5 -83t-82.5 -35q-45 0 -80.5 35t-35.5 83zM0 1018v436h201v-436l-51 -666h-95z" />
<glyph unicode="&#x22;" horiz-adv-x="860" d="M0 1061v307q0 45 33.5 77t75.5 32q41 0 74.5 -33t33.5 -76q0 -39 -20 -92l-95 -215h-102zM344 1061v307q0 45 33.5 77t75.5 32q41 0 74.5 -33t33.5 -76q0 -39 -20 -92l-95 -215h-102z" />
<glyph unicode="#" horiz-adv-x="1218" d="M-18 707l22 120h211l49 234h-223l22 121h224l55 272h119l-49 -272h288l56 272h114l-49 -272h240l-23 -121h-239l-49 -234h251l-22 -120h-250l-61 -293h-119l53 293h-289l-53 -293h-121l56 293h-213zM342 827h289l43 234h-289z" />
<glyph unicode="$" horiz-adv-x="1239" d="M-25 238l129 98q131 -175 345 -205v535q-18 5 -53 13t-52 13q-141 39 -230.5 132.5t-88.5 240.5q1 57 17 111t49.5 105.5t81.5 91.5t119 67.5t157 34.5v174h145v-176q135 -14 229.5 -72.5t167.5 -175.5l-119 -86q-35 71 -109.5 121t-168.5 69v-541q318 -81 393 -251 q73 -162 0 -332q-37 -88 -136 -154.5t-257 -77.5v-168h-145v172q-88 9 -162.5 33.5t-131.5 62.5t-97.5 76t-82.5 89zM170 1071q-1 -57 20.5 -99.5t65 -70.5t87 -45t106.5 -33v510q-114 -16 -194.5 -84.5t-84.5 -177.5zM594 129q138 7 212.5 70.5t74.5 167.5q0 54 -21.5 96.5 t-63.5 72.5t-89 51t-113 40v-498z" />
<glyph unicode="%" horiz-adv-x="1476" d="M-23 1120q0 158 85 256.5t221 98.5q147 0 226 -92t79 -263q0 -360 -305 -360q-145 0 -225.5 95t-80.5 265zM94 1120q0 -121 49.5 -187.5t139.5 -66.5q98 0 145 62t47 192q0 114 -52 180t-140 66t-138.5 -66t-50.5 -180zM209 0l776 1454h133l-776 -1454h-133zM762 344 q0 159 84.5 257.5t220.5 98.5q148 0 226.5 -92t78.5 -264q0 -360 -305 -360q-145 0 -225 95t-80 265zM877 344q0 -120 50.5 -187t139.5 -67q98 0 144 61.5t46 192.5q0 114 -51.5 182t-138.5 68t-138.5 -68t-51.5 -182z" />
<glyph unicode="&#x26;" horiz-adv-x="1249" d="M-4 270q-20 104 12 193q15 44 40 83.5t66 80t65.5 62t76.5 63.5q-98 113 -131 163q-77 118 -70 238q8 122 91 209t206 100q115 14 218 -38t157 -152q40 -78 33.5 -156.5t-46 -147.5t-104.5 -122l-137 -121l311 -340l170 164l103 -107l-172 -166l157 -174l-110 -98 q-140 156 -158 176q-93 -106 -218 -157.5t-253.5 -33t-220.5 110.5q-66 66 -86 170zM138 322q4 -50 34 -97q41 -65 108 -88.5t137.5 -8t139 58t117.5 102.5q1 1 -320 356q-46 -32 -83.5 -65.5t-71 -77t-49.5 -87t-12 -93.5zM209 1122q1 -25 6.5 -48t18 -47.5t20.5 -40 t30 -42t29 -35.5t34.5 -39t31.5 -34l88 73q163 125 147 240q-10 77 -77.5 129.5t-145.5 52.5q-88 0 -136.5 -60.5t-45.5 -148.5z" />
<glyph unicode="'" horiz-adv-x="339" d="M0 1057v317q0 48 24 78.5t66 30.5q41 0 69.5 -31.5t28.5 -77.5q0 -58 -18 -108l-64 -209h-106z" />
<glyph unicode="(" horiz-adv-x="548" d="M1 1030q58 304 228 563l129 -77q-154 -237 -207.5 -512t1.5 -555q59 -278 221 -510l-129 -84q-169 244 -238 569q-63 302 -5 606z" />
<glyph unicode=")" horiz-adv-x="575" d="M-23 -61q163 234 222 510q55 281 1 555.5t-208 511.5l129 77q170 -259 228 -563t-5 -606q-69 -325 -238 -569z" />
<glyph unicode="*" horiz-adv-x="567" d="M-8 1235l35 108l180 -73l-19 198h113l-29 -202l181 77l34 -104l-200 -39l143 -145l-90 -70l-96 178l-101 -180l-90 66l142 151zM238 1212h4h-4z" />
<glyph unicode="+" horiz-adv-x="1089" d="M-41 578v143h365v364h143v-364h364v-143h-364v-367h-143v367h-365z" />
<glyph unicode="," horiz-adv-x="532" d="M0 104q0 48 24 78.5t66 30.5q41 0 69.5 -31.5t28.5 -77.5q0 -58 -18 -108l-64 -209h-106v317z" />
<glyph unicode="-" horiz-adv-x="1067" d="M0 522v131h791v-131h-791z" />
<glyph unicode="." horiz-adv-x="532" d="M-16 102q0 48 35.5 82.5t80.5 34.5q46 0 82.5 -34.5t36.5 -82.5t-36.5 -83t-82.5 -35q-45 0 -80.5 35t-35.5 83z" />
<glyph unicode="/" horiz-adv-x="733" d="M-31 0l451 1454h170l-461 -1454h-160z" />
<glyph unicode="0" horiz-adv-x="1175" d="M-18 710q-3 222 20 369q31 173 159.5 281t313.5 108q91 0 172.5 -35t138.5 -93.5t93 -132.5t45 -154q38 -404 6 -668q-7 -60 -25.5 -114.5t-54.5 -107.5t-85.5 -92t-124 -63t-165.5 -24t-168 26t-128.5 66.5t-90 93t-58 101.5t-26.5 96q-19 121 -22 343zM118.5 770 q-4.5 -180 18.5 -340q5 -27 9 -45.5t15.5 -52.5t26 -57.5t40.5 -52.5t58.5 -46.5t81.5 -30t107 -12.5q64 0 116.5 20.5t86 51.5t58 72.5t36 79t16.5 75.5q15 113 12 319.5t-28 307.5q-7 31 -12 48.5t-16.5 49t-24.5 50t-36 42.5t-50.5 37.5t-68 23t-89.5 9.5 q-68 0 -123.5 -16.5t-91 -42.5t-61.5 -62t-39 -70.5t-19 -72.5q-18 -105 -22.5 -285z" />
<glyph unicode="1" horiz-adv-x="618" d="M-35 1182v141l219 131h148v-1454h-139v1300z" />
<glyph unicode="2" horiz-adv-x="1167" d="M-16 0q0 76 3 126.5t14.5 114t34 113.5t62 108t97.5 116q51 51 130 107t145.5 98.5t128.5 90t98 102t36 114.5q0 241 -291 241q-59 0 -109 -19.5t-84 -48.5t-60 -68t-40 -73t-22 -67l-143 30q35 167 162.5 276t306.5 109q185 0 308.5 -104.5t123.5 -269.5 q0 -65 -17 -121.5t-39.5 -93.5t-65 -77t-73 -61t-85.5 -57t-81 -55q-18 -13 -58 -41t-64.5 -45t-63 -47.5t-63 -55t-53 -59.5t-45 -68.5t-27.5 -75t-11 -85.5h758v-154h-913z" />
<glyph unicode="3" horiz-adv-x="1144" d="M-27 326q0 -1 35.5 12.5t71.5 27.5l35 13q16 -52 38.5 -91.5t60 -75.5t97 -55.5t138.5 -19.5q76 0 147 27.5t121.5 89.5t50.5 145q0 131 -86 207t-236 76h-43v133h41q127 0 207 72.5t80 195.5q0 110 -81 180t-214 70q-230 0 -305 -229l-125 51q14 45 35 86.5t57 85.5 t81.5 76.5t112 53t144.5 20.5q88 0 162.5 -23.5t125 -62t86 -90t51.5 -106t16 -110.5q0 -69 -24 -132t-56.5 -102t-63 -62t-47.5 -23q23 -8 46 -20t59.5 -41.5t63 -66.5t46 -99t19.5 -136q0 -126 -68 -222t-175 -143t-233 -46q-190 2 -297.5 76t-173.5 258z" />
<glyph unicode="4" horiz-adv-x="1146" d="M-31 322v145l613 985h206v-985h162v-145h-162v-322h-143v322h-676zM119 473h526v809z" />
<glyph unicode="5" horiz-adv-x="1157" d="M-39 340l135 39q31 -105 127.5 -180.5t245.5 -75.5q154 0 234.5 92t78.5 238q-2 143 -86.5 235.5t-222.5 91.5q-37 0 -80 -9.5t-85.5 -27.5t-72.5 -51t-34 -74l-178 27l2 809h829v-143h-686v-500q4 5 11.5 13.5t34.5 29.5t58.5 37t84.5 29.5t112 13.5q111 0 201.5 -37.5 t149 -103t90 -153t30.5 -187.5q-2 -200 -134.5 -339t-326.5 -139q-100 0 -183.5 24.5t-138.5 61.5t-97.5 87.5t-64.5 97t-34 94.5z" />
<glyph unicode="6" horiz-adv-x="1171" d="M-25 463q-1 82 11.5 151t23.5 98t38 81t30 59l368 602h179l-392 -602q7 12 30.5 27.5t77 31.5t118.5 17q207 1 342 -135.5t133 -343.5q-2 -210 -133.5 -342t-351.5 -132q-217 0 -344.5 138t-129.5 350zM123 449q0 -142 91.5 -234.5t236.5 -97.5q141 -4 237 95.5t98 236.5 q1 89 -40 166.5t-119.5 126t-175.5 49.5q-147 1 -237.5 -97.5t-90.5 -244.5z" />
<glyph unicode="7" horiz-adv-x="1101" d="M0 1309v143h907v-121l-604 -1331h-170l602 1309h-735z" />
<glyph unicode="8" horiz-adv-x="1101" d="M-35 375q0 68 12 124t36 96t46.5 67.5t56.5 49.5t51 31t46 21q-31 17 -51 30t-52.5 43t-52 62.5t-34.5 85.5t-15 115q0 172 111 272.5t313 100.5q97 0 174.5 -30t126.5 -82t75 -118.5t26 -142.5q0 -265 -232 -340q53 -16 100 -44.5t89 -73t66.5 -110.5t23.5 -145 q-3 -405 -449 -405q-132 0 -237 46.5t-167.5 137t-62.5 209.5zM100 375q0 -105 95 -175.5t233 -70.5q70 0 124 11t101.5 38t73 80t25.5 131q0 45 -12 83t-33 65t-50 49.5t-61 38t-69.5 28t-71.5 21.5t-70 17q-4 1 -7.5 1.5t-6.5 1.5q-72 -20 -123.5 -49t-79.5 -59t-44 -69.5 t-20 -70.5t-4 -71zM152 1096q0 -55 20 -100t48.5 -73t71 -50.5t76.5 -33t76 -20.5q137 18 199 93t62 188q0 121 -64.5 181t-212.5 60q-133 0 -204.5 -65.5t-71.5 -179.5z" />
<glyph unicode="9" horiz-adv-x="1105" d="M-29 999q1 121 38.5 214t104 149t150 83.5t182.5 27.5q214 0 341.5 -127.5t127.5 -344.5q0 -72 -16 -144t-29 -106t-44.5 -98t-32.5 -67l-353 -586h-176l387 596q-7 -12 -26.5 -26.5t-71 -29.5t-119.5 -16q-96 -2 -178.5 26t-147 84t-101.5 150t-36 215zM102 1001 q-3 -144 88 -240t244 -95q154 1 241 93.5t87 241.5q0 153 -81.5 242.5t-242.5 89.5t-247 -92.5t-89 -239.5z" />
<glyph unicode=":" horiz-adv-x="454" d="M-16 143q0 48 35.5 82.5t80.5 34.5q46 0 82.5 -34.5t36.5 -82.5t-36.5 -83t-82.5 -35q-45 0 -80.5 35t-35.5 83zM-16 852q0 48 35.5 82.5t80.5 34.5q46 0 82.5 -34.5t36.5 -82.5t-37 -83.5t-82 -35.5t-80.5 35t-35.5 84z" />
<glyph unicode=";" horiz-adv-x="411" d="M-16 750q0 48 35.5 82t80.5 34q46 0 82.5 -34t36.5 -82t-37 -83.5t-82 -35.5t-80.5 35t-35.5 84zM8 145q0 48 24 78.5t66 30.5q41 0 70 -31.5t29 -77.5q0 -55 -19 -108l-63 -209h-107v317z" />
<glyph unicode="&#x3c;" horiz-adv-x="1167" d="M-25 506v117l848 434l60 -117l-733 -375l733 -372l-60 -117z" />
<glyph unicode="=" horiz-adv-x="1126" d="M-2 401v138h993v-138h-993zM-2 868v138h993v-138h-993z" />
<glyph unicode="&#x3e;" horiz-adv-x="1062" d="M-27 193l734 372l-734 375l60 117l848 -434v-117l-848 -430z" />
<glyph unicode="?" horiz-adv-x="1056" d="M-43 1118q35 124 116.5 210t177 120.5t195.5 28.5q169 -11 284 -111t144 -266q12 -64 -5 -129.5t-46.5 -113t-72.5 -93.5t-69.5 -67.5t-51.5 -39.5q-95 -66 -139 -131.5t-44 -148.5h-141q0 69 18.5 128t55 105.5t73 80t87.5 69.5q117 84 164 159t32 162q-11 65 -43 116 t-75 81.5t-89 46.5t-92 18q-106 5 -209.5 -67.5t-138.5 -198.5zM264 102q0 48 36 82.5t81 34.5q46 0 82.5 -34.5t36.5 -82.5t-36.5 -83t-82.5 -35q-45 0 -81 35t-36 83z" />
<glyph unicode="@" horiz-adv-x="1867" d="M-23 655q0 180 67.5 339.5t195.5 277.5q114 105 257.5 161t299.5 56q165 0 311.5 -62t261.5 -178q114 -115 174 -271.5t60 -334.5q0 -246 -82 -395q-27 -45 -63.5 -76.5t-72 -45.5t-63 -20t-51.5 -6q-98 0 -172 65.5t-115 180.5q-15 -26 -28.5 -43.5t-39.5 -41t-66 -36 t-91 -12.5q-82 -1 -147.5 22t-110 64t-73.5 98t-41 123.5t-9 141.5q8 185 102 297t262 106q81 -1 137.5 -38t59.5 -81l4 86l162 -6l-6 -129l-13 -352v-10q1 -127 51.5 -206t114.5 -89q93 -15 144 82q53 100 53 321q0 197 -85.5 358t-235 251.5t-332.5 90.5 q-124 0 -239.5 -45t-207.5 -129q-105 -102 -162 -233t-57 -281q0 -104 24 -201t76.5 -184.5t128 -152.5t186 -103.5t242.5 -38.5h5q118 -5 178 27l78 -125q-89 -47 -236 -47h-27q-374 0 -604 250q-98 109 -151.5 258.5t-53.5 316.5zM555 643q-1 -137 53.5 -212t153.5 -73 q76 3 111.5 72t41.5 211q6 140 -26 205.5t-125 68.5q-96 6 -152.5 -73.5t-56.5 -198.5z" />
<glyph unicode="A" horiz-adv-x="1374" d="M-37 0l551 1454h123l551 -1454h-152l-137 362h-645l-137 -362h-154zM307 504h537l-269 739z" />
<glyph unicode="B" horiz-adv-x="1245" d="M0 0v1454h465q76 0 142.5 -13.5t124.5 -44t99.5 -75.5t65 -111.5t23.5 -148.5q0 -63 -16 -117t-38.5 -87t-48 -56.5t-44.5 -33t-28 -9.5q14 0 42 -12.5t64.5 -41.5t68.5 -68.5t54.5 -101t22.5 -131.5q0 -47 -10 -96.5t-39 -106t-72.5 -99.5t-119 -72t-170.5 -29h-586z M143 137h428q141 0 212 76.5t71 200.5q0 113 -78.5 189.5t-218.5 76.5h-414v-543zM143 823h414q109 0 166 73t57 171q0 42 -14 83t-43 80.5t-85 64t-130 24.5h-365v-496z" />
<glyph unicode="C" horiz-adv-x="1325" d="M-23 637v166q0 312 156.5 492t409.5 180q211 0 358 -128.5t191 -353.5h-146q-38 161 -143 249.5t-260 88.5q-198 0 -311 -142t-113 -386v-166q0 -246 112 -381t312 -135q158 0 264 95t143 265h144q-41 -236 -189 -368.5t-362 -132.5q-122 0 -224.5 42t-179 123 t-119.5 207t-43 285z" />
<glyph unicode="D" horiz-adv-x="1290" d="M0 0v1454h451q124 0 232.5 -45.5t188 -128t125 -204.5t45.5 -267v-168q0 -147 -45.5 -268.5t-125.5 -202.5t-188 -125.5t-232 -44.5h-451zM143 133h308q198 0 324 139t126 369v168q0 228 -126.5 370t-323.5 142h-308v-1188z" />
<glyph unicode="E" horiz-adv-x="1198" d="M0 0v1454h897v-149h-756v-490h617v-149h-617v-519h783v-147h-924z" />
<glyph unicode="F" horiz-adv-x="1171" d="M0 0v1454h897v-149h-754v-490h615v-149h-615v-666h-143z" />
<glyph unicode="G" horiz-adv-x="1351" d="M-20 639v170q0 310 156 488t409 178q202 0 346 -124t194 -339h-145q-40 151 -143.5 236t-251.5 85q-197 0 -309.5 -140t-112.5 -384v-170q0 -245 111.5 -381.5t310.5 -136.5q183 0 295 122.5t125 338.5h-402v143h404h86h53v-86q0 -307 -154.5 -484.5t-406.5 -177.5 q-121 0 -224 43.5t-179 125.5t-119 208.5t-43 284.5z" />
<glyph unicode="H" horiz-adv-x="1298" d="M0 0v1454h143v-661h731v661h144v-1454h-144v662h-731v-662h-143z" />
<glyph unicode="I" d="M0 0v1454h143v-1454h-143z" />
<glyph unicode="J" horiz-adv-x="1087" d="M-66 109l99 100q88 -88 233 -88q163 0 256.5 117t93.5 321v895h144v-895q0 -268 -137 -425t-357 -157q-200 0 -332 132z" />
<glyph unicode="K" horiz-adv-x="1310" d="M0 0v1454h143v-717l715 717h201l-570 -569l652 -885h-176l-576 782l-246 -245v-537h-143z" />
<glyph unicode="L" horiz-adv-x="1132" d="M0 0v1454h143v-1315h779v-139h-922z" />
<glyph unicode="M" horiz-adv-x="1640" d="M0 0v1454h225l426 -1128l426 1128h246v-1454h-143v1317l-449 -1190h-151l-437 1147v-1274h-143z" />
<glyph unicode="N" horiz-adv-x="1392" d="M0 0v1454h184l772 -1249v1249h142v-1454h-183l-774 1255v-1255h-141z" />
<glyph unicode="O" horiz-adv-x="1353" d="M-18 641v170q0 309 153.5 485.5t405.5 176.5q250 0 405.5 -180t155.5 -482v-170q0 -305 -155 -481t-406 -176q-120 0 -222 43t-177 124.5t-117.5 207t-42.5 282.5zM121 641q0 -244 111 -379t309 -135q196 0 308 136.5t112 377.5v170q0 239 -113 379.5t-307 140.5 q-197 0 -308.5 -139t-111.5 -381v-170z" />
<glyph unicode="P" horiz-adv-x="1218" d="M0 0v1454h512q216 0 347.5 -127t131.5 -315q0 -89 -35 -169.5t-97 -140t-152.5 -94.5t-194.5 -35h-369v-573h-143zM143 715h369q146 0 241 84t95 213q0 135 -92 216t-244 81h-369v-594z" />
<glyph unicode="Q" horiz-adv-x="1425" d="M-18 641v170q0 311 154.5 488.5t408.5 177.5q251 0 408 -181t157 -485v-170q0 -296 -147 -473l155 -156l-100 -100l-160 158q-134 -90 -313 -90q-122 0 -224 43t-178 124.5t-118.5 208t-42.5 285.5zM123 641q0 -247 111 -383.5t311 -136.5q125 0 211 53l-150 150l101 100 l153 -154q109 144 109 371v170q0 240 -114.5 382t-309.5 142q-199 0 -310.5 -140t-111.5 -384v-170z" />
<glyph unicode="R" horiz-adv-x="1284" d="M0 0v1454h510q108 0 199 -34.5t151.5 -94.5t94.5 -140t34 -171q0 -148 -88 -262.5t-237 -157.5l329 -594h-162l-319 575h-2h-367v-575h-143zM143 715h367q148 0 243 84t95 215q0 132 -93 214.5t-245 82.5h-367v-596z" />
<glyph unicode="S" horiz-adv-x="1271" d="M-37 240l111 94q90 -119 196.5 -165t243.5 -46q155 0 243.5 64.5t88.5 177.5q0 64 -24.5 114t-62.5 82.5t-99.5 58t-121 40t-141.5 28.5q-174 28 -270 128t-96 255q4 61 22 117t55.5 109t91 92t134 62.5t178.5 23.5q298 0 446 -199l-106 -90q-42 58 -142.5 100.5 t-213.5 42.5q-134 0 -228 -70.5t-94 -191.5q0 -47 12 -84t37.5 -62.5t53 -43.5t71 -31t77.5 -20.5t85 -17.5q18 -3 27 -5q90 -17 164.5 -48t141 -80.5t104.5 -127.5t38 -176q0 -100 -36.5 -176t-102 -122t-149.5 -68.5t-185 -22.5q-86 0 -162 15t-130.5 38.5t-104.5 59.5 t-83.5 69t-68.5 76z" />
<glyph unicode="T" horiz-adv-x="1253" d="M-25 1311v143h998v-143h-428v-1311h-144v1311h-426z" />
<glyph unicode="U" horiz-adv-x="1351" d="M0 612v842h141v-842q0 -244 95 -367.5t272 -123.5q180 0 272 123.5t92 367.5v842h144v-842q0 -315 -128 -475t-380 -160q-245 0 -376.5 158t-131.5 477z" />
<glyph unicode="V" horiz-adv-x="1372" d="M-47 1454h149l437 -1241l438 1241h149l-512 -1454h-149z" />
<glyph unicode="W" horiz-adv-x="1818" d="M-57 1454h145l361 -1200l280 932h145l281 -932l356 1200h150l-432 -1454h-150l-278 936l-277 -936h-149z" />
<glyph unicode="X" horiz-adv-x="1349" d="M-41 0l481 721l-463 733h168l383 -604l404 604h170l-490 -735l457 -719h-170l-373 590l-395 -590h-172z" />
<glyph unicode="Y" horiz-adv-x="1288" d="M-49 1454h162l399 -717l397 717h164l-489 -879v-575h-144v575z" />
<glyph unicode="Z" horiz-adv-x="1261" d="M-10 0v164l807 1147h-785v143h963v-143h-4l-824 -1168h828v-143h-985z" />
<glyph unicode="[" horiz-adv-x="614" d="M0 -68v1596h469v-148h-309v-1304h309v-144h-469z" />
<glyph unicode="\" horiz-adv-x="765" d="M-33 1454h170l451 -1454h-160z" />
<glyph unicode="]" horiz-adv-x="753" d="M0 -68v144h309v1304h-309v148h469v-1596h-469z" />
<glyph unicode="^" horiz-adv-x="991" d="M59 1280l273 209h74l272 -209l-82 -104l-227 176l-234 -174z" />
<glyph unicode="_" horiz-adv-x="1249" d="M0 0h1249v-137h-1249v137z" />
<glyph unicode="`" horiz-adv-x="735" d="M-147 1419l137 121l266 -375h-141z" />
<glyph unicode="a" horiz-adv-x="1089" d="M-16 254v37q0 152 115.5 237.5t326.5 85.5h246v76q0 30 -9.5 59t-33.5 62t-76.5 53.5t-126.5 20.5q-67 0 -121 -11t-91.5 -32.5t-57.5 -37t-43 -38.5l-90 113q98 88 198.5 118.5t208.5 30.5q48 0 93.5 -7t100.5 -30t95 -60.5t67 -105.5t27 -157q-1 -316 -1 -483t1 -185 h-141v119q-41 -62 -131 -98.5t-197 -36.5h-47q-133 0 -223 81.5t-90 188.5zM115 272q0 -61 49.5 -108t144.5 -47h27q155 0 245.5 76t90.5 190v94h-236q-165 0 -243 -45.5t-78 -146.5v-13z" />
<glyph unicode="b" horiz-adv-x="1101" d="M0 0v1454h141v-590q23 52 71.5 91t105.5 57t114 18q182 0 305 -130.5t123 -344.5v-100q0 -109 -37.5 -200.5t-98.5 -149.5t-137 -90.5t-155 -32.5q-83 0 -163.5 37.5t-127.5 109.5v-129h-141zM137 455q0 -155 87.5 -244.5t203.5 -89.5q113 0 201 90.5t88 243.5v100 q0 151 -79.5 242.5t-209.5 91.5q-127 0 -209 -94t-82 -240v-100z" />
<glyph unicode="c" horiz-adv-x="1062" d="M-18 451v98q0 216 128 349.5t316 133.5q127 0 229.5 -67t159.5 -185l-131 -57q-37 77 -106 121.5t-156 44.5q-133 0 -215 -94.5t-82 -245.5v-98q0 -155 90.5 -246.5t206.5 -91.5q202 0 276 147l131 -57q-58 -115 -164.5 -173.5t-242.5 -58.5q-82 0 -160.5 33t-141 92.5 t-100.5 152t-38 202.5z" />
<glyph unicode="d" horiz-adv-x="1138" d="M-20 455v100q0 214 123 344.5t305 130.5q57 0 113.5 -18t105 -57t71.5 -91v590h142v-1454h-142v129q-47 -72 -127 -109.5t-163 -37.5q-79 0 -155 32.5t-137 90.5t-98.5 149.5t-37.5 200.5zM123 455q0 -153 88 -243.5t201 -90.5q116 0 203 89.5t87 244.5v100 q0 146 -81.5 240t-208.5 94q-130 0 -209.5 -91.5t-79.5 -242.5v-100z" />
<glyph unicode="e" horiz-adv-x="1112" d="M-20 453v98q0 217 126.5 349t315.5 132q186 0 312 -134.5t126 -346.5v-111h-737q6 -147 104.5 -235t216.5 -88q107 0 176 25.5t119 101.5l111 -86q-74 -101 -172.5 -142t-233.5 -41q-82 0 -163.5 33t-149 92t-109.5 151.5t-42 201.5zM123 571h596q-3 142 -86 230t-211 88 q-133 0 -214.5 -85.5t-84.5 -232.5z" />
<glyph unicode="f" horiz-adv-x="731" d="M-33 883v139h137v78q0 75 17 139.5t53 120.5t102.5 88.5t157.5 32.5h88v-133h-6q-151 0 -211.5 -65t-60.5 -191v-70h274v-139h-274v-883h-144v883h-133z" />
<glyph unicode="g" horiz-adv-x="1130" d="M-16 459v98q0 109 37 200.5t97.5 150.5t136.5 91.5t155 32.5q85 0 164 -36.5t126 -110.5v123h142v-1026q0 -205 -117.5 -313.5t-310.5 -108.5q-130 0 -230.5 50t-163.5 144l111 72q99 -137 285 -137q132 0 207 71t75 205l2 187q-32 -79 -115.5 -123.5t-174.5 -44.5 q-182 0 -304 130t-122 345zM125 459q0 -151 80 -242.5t211 -91.5q124 0 205 94.5t81 239.5v98q0 79 -24.5 144t-65 105.5t-91 62.5t-105.5 22q-114 0 -202.5 -91t-88.5 -243v-98z" />
<glyph unicode="h" horiz-adv-x="1140" d="M0 0v1454h143v-584q27 74 109.5 119t173.5 45q193 0 307.5 -133t114.5 -350v-551h-141v551q0 153 -73 246.5t-208 93.5q-132 0 -207.5 -93t-75.5 -247v-551h-143z" />
<glyph unicode="i" horiz-adv-x="440" d="M0 0h141v1008h-141v-1008zM0 1266v188h141v-188h-141z" />
<glyph unicode="j" horiz-adv-x="497" d="M-162 -264q13 -2 26 -2q79 0 134 64q63 73 63 198v1012h144v-1012q0 -92 -22 -165t-58.5 -117.5t-85 -73t-98.5 -37.5q-32 -6 -66 -6q-18 0 -37 2v137zM61 1264v190h144v-190h-144z" />
<glyph unicode="k" horiz-adv-x="1056" d="M0 0v1454h141v-917l473 471h201l-438 -439l461 -569h-183l-379 469l-135 -131v-338h-141z" />
<glyph unicode="l" horiz-adv-x="428" d="M0 0v1454h141v-1454h-141z" />
<glyph unicode="m" horiz-adv-x="1701" d="M0 0v553v455h141v-134q26 75 97.5 117.5t160.5 42.5q225 0 316 -186q22 54 60 92.5t84.5 58t90.5 27.5t92 8q192 0 287.5 -119t95.5 -340v-575h-143v553q0 170 -53 255t-187 85q-130 0 -194 -90.5t-64 -249.5v-553h-2h-139h-4v553q0 162 -54 251t-186 89 q-130 0 -194 -90.5t-64 -249.5v-553h-141z" />
<glyph unicode="n" horiz-adv-x="1130" d="M0 0v1008h141v-134q25 72 112.5 116t180.5 44q194 0 303 -130.5t109 -350.5v-553h-144v553q0 155 -70 250.5t-204 95.5q-131 0 -209 -96t-78 -250v-553h-141z" />
<glyph unicode="o" horiz-adv-x="1101" d="M-14 455v98q0 215 125 346t311 131q89 0 169.5 -35t139.5 -96.5t94 -151.5t35 -194v-98q0 -112 -38.5 -204.5t-101.5 -149.5t-140 -88t-158 -31t-158 32.5t-139.5 90.5t-100.5 149.5t-38 200.5zM125 455q0 -152 90.5 -243t206.5 -91q48 0 97 19t94.5 56.5t74.5 105 t29 153.5v98q0 145 -84 240.5t-211 95.5q-132 0 -214.5 -93.5t-82.5 -242.5v-98z" />
<glyph unicode="p" horiz-adv-x="1138" d="M0 -440v1448h141v-125q47 74 126 111.5t163 37.5q79 0 155 -32.5t137 -91.5t98.5 -150.5t37.5 -200.5v-98q0 -143 -58 -252.5t-155 -167t-215 -57.5q-91 0 -174 44.5t-115 123.5v-590h-141zM137 459q0 -145 81.5 -240.5t207.5 -95.5q130 0 209.5 92.5t79.5 243.5v98 q0 154 -87.5 244t-201.5 90q-116 0 -202.5 -89.5t-86.5 -244.5v-98z" />
<glyph unicode="q" horiz-adv-x="1130" d="M-23 459v98q0 109 37.5 200.5t99 150.5t137.5 91.5t155 32.5q84 0 162.5 -37.5t125.5 -111.5v125h142v-1448h-142v590q-32 -79 -114.5 -123.5t-173.5 -44.5q-182 0 -305.5 131.5t-123.5 345.5zM121 459q0 -151 79.5 -243.5t209.5 -92.5q126 0 207 95.5t81 240.5v98 q0 155 -86 244.5t-202 89.5q-114 0 -201.5 -90t-87.5 -244v-98z" />
<glyph unicode="r" horiz-adv-x="808" d="M0 0v1008h141v-142q25 73 107.5 117.5t173.5 44.5q86 0 170 -33l-57 -131q-58 21 -113 21q-131 0 -206 -92t-75 -246v-547h-141z" />
<glyph unicode="s" horiz-adv-x="1048" d="M-43 137l100 105q61 -58 159 -90.5t194 -32.5q109 0 179 40.5t70 106.5q0 81 -65 118.5t-238 57.5q-48 5 -90 14t-93 30t-86.5 51.5t-60 81.5t-24.5 116q0 84 33 144t91 92.5t124.5 46.5t146.5 14q107 0 221 -40.5t164 -98.5l-77 -105q-78 57 -148 82q-65 20 -137 24 q-15 1 -29 1q-56 -1 -105 -11q-62 -14 -102.5 -50.5t-40.5 -90.5q0 -33 9 -57.5t31.5 -41.5t44.5 -28t66.5 -20t76.5 -13.5t94 -11.5q340 -41 340 -305q0 -120 -98.5 -203t-286.5 -83q-66 0 -108 3.5t-107 17t-126.5 47.5t-121.5 89z" />
<glyph unicode="t" horiz-adv-x="727" d="M-57 891v137h147v324h143v-324h220v-137h-220v-582q0 -49 15 -85t39 -53.5t53.5 -29t58.5 -10.5t54 0v-139h-41.5h-35.5q-32 1 -72 8t-68 20t-58 37.5t-47.5 59.5t-29 88t-11.5 121v565h-147z" />
<glyph unicode="u" horiz-adv-x="1144" d="M0 459v549h143v-549q0 -154 70 -249t205 -95q131 0 210 96t79 248v549h141v-2v-555v-451h-141v139q-18 -49 -67 -87t-109 -56.5t-119 -18.5q-194 0 -303 131.5t-109 350.5z" />
<glyph unicode="v" horiz-adv-x="1077" d="M-35 1008h152l299 -781l297 781h153l-391 -1008h-123z" />
<glyph unicode="w" horiz-adv-x="1519" d="M-51 1008h147l228 -738l225 738h149l228 -738l225 738h152l-312 -1008h-129l-237 768l-236 -768h-131z" />
<glyph unicode="x" horiz-adv-x="1067" d="M-55 0l348 510l-334 498h172l248 -373l258 373h172l-344 -498l342 -510h-170l-258 381l-264 -381h-170z" />
<glyph unicode="y" horiz-adv-x="1105" d="M-27 1008h158l311 -811l310 811h159q-424 -1096 -469 -1209q-34 -77 -77 -123t-97 -61q-42 -12 -86 -12q-11 0 -23 1q-56 4 -128 25l41 138q54 -16 92.5 -17.5t61.5 3.5t43 31t28.5 44t26.5 65q7 16 10 25l28 78z" />
<glyph unicode="z" horiz-adv-x="1009" d="M0 0v131l547 727h-537v150h758v-95l-586 -770h600v-143h-782z" />
<glyph unicode="{" horiz-adv-x="573" d="M-4 651v152q49 0 93 48t44 132v291q0 140 80 222.5t211 82.5v-152q-137 0 -137 -153v-291q0 -76 -26.5 -141t-70.5 -109q2 -2 7.5 -8t7.5 -8q82 -82 82 -219v-308q0 -40 13.5 -70t30.5 -44t39.5 -22t33.5 -9.5t20 -1.5v-154q-116 0 -203.5 81.5t-87.5 219.5v308 q0 77 -35 112q-18 16 -43.5 26t-42.5 12z" />
<glyph unicode="|" horiz-adv-x="202" d="M0 -279v1940h150v-1940h-150z" />
<glyph unicode="}" horiz-adv-x="571" d="M-6 43q9 0 20 1.5t33.5 9.5t39.5 22t30.5 44t13.5 70v308q0 137 82 219q2 2 7 8t7 8q-43 43 -69.5 108.5t-26.5 141.5v291q0 153 -137 153v152q131 0 211 -82.5t80 -222.5v-291q0 -84 44 -132t93 -48v-152q-62 -6 -103 -41q-34 -34 -34 -112v-308q0 -138 -87.5 -219.5 t-203.5 -81.5v154z" />
<glyph unicode="~" horiz-adv-x="1011" d="M-35 623q120 146 266 143q64 3 120.5 -13t89 -37.5t67 -40t59.5 -18.5q33 1 57.5 10.5t38.5 26t20.5 30t12.5 32.5l105 -54q-24 -64 -87 -112.5t-141 -48.5q-41 1 -76 13t-61.5 28.5t-54 33t-66 27t-84.5 8.5q-91 -5 -174 -100l-14 -12z" />
<glyph unicode="&#xa1;" horiz-adv-x="389" d="M-14 905q0 48 35.5 82.5t80.5 34.5q46 0 82.5 -34.5t36.5 -82.5t-37 -83.5t-82 -35.5t-80.5 35t-35.5 84zM0 -10l55 665h95l51 -665v-436h-201v436z" />
<glyph unicode="&#xa2;" horiz-adv-x="1032" d="M-35 510q0 233 125.5 377t351.5 143h2l58 242l143 2l-63 -264q50 -15 91.5 -40.5t67 -53.5t42 -52t27.5 -45.5t13 -23.5l-114 -52q-49 96 -162 129l-180 -743h8q32 -4 43 -4q2 0 6 -1t6 -1t5.5 1t4.5 1q188 0 275 129l127 -51q-1 -1 -10.5 -17.5t-14.5 -24.5t-19.5 -27 t-26.5 -30.5t-33 -29.5t-41.5 -29.5t-50.5 -25t-62 -21t-72.5 -13t-85.5 -5.5q-48 0 -92 6l-60 -248h-129l68 289q-120 60 -184 188t-64 295zM100 510q0 -109 38 -196t110 -136l164 713q-94 -3 -162 -57q-73 -47 -111.5 -131.5t-38.5 -192.5z" />
<glyph unicode="&#xa3;" horiz-adv-x="1167" d="M-53 745v127h162q-30 88 -41.5 154.5t-7.5 111t20 93.5q9 28 28.5 59.5t54.5 66t78.5 62t104 44.5t129 18t156 -23t180.5 -74v-131q-322 182 -524 27q-146 -116 -19 -408h289v-127h-225l2 -2q19 -33 32.5 -69.5t21.5 -97t-1.5 -121t-47.5 -138t-106 -151.5q38 14 97 14 q70 4 127.5 -9t87.5 -31.5t63.5 -34t59.5 -15.5q113 2 141 109l115 -60q-27 -69 -95 -121.5t-153 -52.5q-54 0 -101 19.5t-77 42t-81 40.5t-112 15q-52 -1 -113 -37.5t-100 -79.5l-37 49l-43 58q7 5 19.5 14t46 40t61.5 65t56.5 86.5t41.5 106.5t7 124.5t-39 140.5 q-24 53 -45 96h-213z" />
<glyph unicode="&#xa5;" horiz-adv-x="1239" d="M-41 1454h176l400 -743l395 743h168l-451 -817h410v-121h-445v-143h445v-123h-445v-250h-155v250h-457v123h457v143h-457v121h422z" />
<glyph unicode="&#xa6;" horiz-adv-x="419" d="M0 -238v793h150v-793h-150zM0 827v813h150v-813h-150z" />
<glyph unicode="&#xa8;" horiz-adv-x="899" d="M-23 1325q0 42 31 72t72 30t72.5 -30t31.5 -72t-32 -73t-72 -31t-71.5 31t-31.5 73zM393 1325q0 42 31 72t72 30t72.5 -30t31.5 -72t-32 -73t-72 -31t-71.5 31t-31.5 73z" />
<glyph unicode="&#xab;" horiz-adv-x="1239" d="M-25 510v90l433 432l90 -92l-383 -385l383 -381l-90 -94zM467 510v90l432 432l90 -92l-383 -385l383 -381l-90 -94z" />
<glyph unicode="&#xad;" horiz-adv-x="1067" d="M0 522v131h791v-131h-791z" />
<glyph unicode="&#xaf;" horiz-adv-x="899" d="M-2 1210v138h772v-138h-772z" />
<glyph unicode="&#xb0;" horiz-adv-x="593" d="M-12 1208q0 103 71.5 175.5t173.5 72.5q103 0 175.5 -72.5t72.5 -175.5q0 -102 -72.5 -173.5t-175.5 -71.5t-174 71t-71 174zM111 1208q0 -53 35 -88t87 -35q53 0 88 35.5t35 87.5t-35 87.5t-88 35.5q-52 0 -87 -35t-35 -88z" />
<glyph unicode="&#xb4;" horiz-adv-x="860" d="M322 1192l235 369l143 -136l-241 -233h-137z" />
<glyph unicode="&#xb7;" horiz-adv-x="225" d="M-4 729q0 45 34 78t76 33t76.5 -33t34.5 -78t-34.5 -78t-76.5 -33t-76 33t-34 78z" />
<glyph unicode="&#xb8;" horiz-adv-x="1239" d="M403 -459l37 113l133 -43q28 -8 48 -8q39 0 69 26q20 19 26 49t-1 50q-10 36 -46 60.5t-137 55.5l-12 4l2 11v147v19h119l6 -101q151 -48 184 -164q15 -58 -1 -117t-58 -98q-67 -61 -156 -61q-42 0 -79 12z" />
<glyph unicode="&#xbb;" horiz-adv-x="1245" d="M2 174l383 381l-383 385l90 92l432 -432v-90l-432 -430zM494 174l383 381l-383 385l90 92l432 -432v-90l-432 -430z" />
<glyph unicode="&#xbf;" horiz-adv-x="960" d="M-20 -92q-12 64 4 128.5t44 110.5t69.5 91t67 65.5t50.5 38.5q94 65 139 135t45 154h156q0 -56 -15.5 -107.5t-36.5 -88t-58.5 -77.5t-63.5 -63.5t-70 -58.5q-110 -87 -152 -148.5t-28 -144.5q22 -125 103 -190t180 -68q69 -3 134 20.5t121 81.5t79 143l149 -41 q-35 -124 -116.5 -209.5t-177 -120t-195.5 -28.5q-169 11 -284 111t-144 266zM354 905q0 48 36 82.5t81 34.5q46 0 82.5 -34.5t36.5 -82.5t-37 -83.5t-82 -35.5t-81 35.5t-36 83.5z" />
<glyph unicode="&#xc0;" horiz-adv-x="1433" d="M-37 0l551 1454h123l551 -1454h-152l-137 362h-645l-137 -362h-154zM250 1866l137 121l266 -375h-141zM307 504h537l-269 739z" />
<glyph unicode="&#xc1;" horiz-adv-x="1433" d="M-37 0l551 1454h123l551 -1454h-152l-137 362h-645l-137 -362h-154zM307 504h537l-269 739zM516 1575l236 369l143 -136l-242 -233h-137z" />
<glyph unicode="&#xc2;" horiz-adv-x="1433" d="M-37 0l551 1454h123l551 -1454h-152l-137 362h-645l-137 -362h-154zM274 1645l224 227h159l222 -227l-80 -60l-221 150l-228 -152zM307 504h537l-269 739z" />
<glyph unicode="&#xc3;" horiz-adv-x="1433" d="M-37 0l551 1454h123l551 -1454h-152l-137 362h-645l-137 -362h-154zM240 1597q14 73 79 128t154 55q58 0 106.5 -14t74 -31t52.5 -31t48 -14q46 0 78 17.5t40 43.5l97 -41q0 -17 -12.5 -42.5t-35.5 -52.5t-64.5 -46t-90.5 -19q-53 0 -105 22.5t-98 45t-84 22.5 q-112 0 -145 -77zM307 504h537l-269 739z" />
<glyph unicode="&#xc4;" horiz-adv-x="1433" d="M-37 0l551 1454h123l551 -1454h-152l-137 362h-645l-137 -362h-154zM274 1772q0 42 31 72t72 30t72.5 -30t31.5 -72t-32 -73.5t-72 -31.5t-71.5 31.5t-31.5 73.5zM307 504h537l-269 739zM690 1772q0 42 31 72t72 30t72.5 -30t31.5 -72t-32 -73.5t-72 -31.5t-71.5 31.5 t-31.5 73.5z" />
<glyph unicode="&#xc5;" horiz-adv-x="1433" d="M-37 0l551 1454h123l551 -1454h-152l-137 362h-645l-137 -362h-154zM307 504h537l-269 739zM369 1667q0 84 65 146.5t144 62.5t143.5 -62.5t64.5 -146.5t-64.5 -146.5t-143.5 -62.5t-144 62.5t-65 146.5zM463 1663q0 -46 34 -80.5t81 -34.5t80.5 34.5t33.5 80.5 q0 47 -33.5 81t-80.5 34t-81 -34t-34 -81z" />
<glyph unicode="&#xc6;" horiz-adv-x="1835" d="M-25 0l668 1452h911v-141h-694l80 -496h561v-156h-534l80 -514h565v-145h-684l-58 367h-563l-164 -367h-168zM365 514h483l-119 762z" />
<glyph unicode="&#xc7;" horiz-adv-x="1298" d="M-25 641v166q0 313 155.5 492.5t410.5 179.5q211 0 358 -128.5t191 -353.5h-146q-38 161 -143 249.5t-260 88.5q-200 0 -312 -141.5t-112 -386.5v-166q0 -247 111 -381.5t313 -134.5q161 0 261.5 87.5t147.5 272.5h142q-41 -232 -175 -366.5t-321 -134.5v-80 q136 -36 174 -158q17 -54 2.5 -111.5t-55.5 -95.5q-64 -55 -152 -55q-24 0 -78 12l-125 41l37 109l125 -43q32 -4 47 -4q44 0 66 22q18 18 24 46t1 50q-9 34 -45 58t-130 53l-16 4l6 10v144q-227 21 -364.5 190.5t-137.5 464.5z" />
<glyph unicode="&#xc8;" horiz-adv-x="1198" d="M0 0v1454h897v-149h-756v-490h617v-149h-617v-519h783v-147h-924zM133 1866l137 121l267 -375h-142z" />
<glyph unicode="&#xc9;" horiz-adv-x="1198" d="M0 0v1454h897v-149h-756v-490h617v-149h-617v-519h783v-147h-924zM399 1638l236 369l143 -135l-241 -234h-138z" />
<glyph unicode="&#xca;" horiz-adv-x="1198" d="M0 0v1454h897v-149h-756v-490h617v-149h-617v-519h783v-147h-924zM164 1706l223 227h160l221 -227l-80 -59l-221 149l-227 -151z" />
<glyph unicode="&#xcb;" horiz-adv-x="1198" d="M0 0v1454h897v-149h-756v-490h617v-149h-617v-519h783v-147h-924zM156 1772q0 42 31 72t71 30q41 0 72.5 -30t31.5 -72t-32 -73.5t-72 -31.5t-71 31.5t-31 73.5zM571 1772q0 42 31 72t72 30t72.5 -30t31.5 -72t-32 -73.5t-72 -31.5t-71.5 31.5t-31.5 73.5z" />
<glyph unicode="&#xcc;" d="M-229 1866l137 121l266 -375h-141zM0 0h143v1454h-143v-1454z" />
<glyph unicode="&#xcd;" d="M0 0v1454h143v-1454h-143zM37 1638l235 369l144 -135l-242 -234h-137z" />
<glyph unicode="&#xce;" d="M-199 1706l224 227h159l222 -227l-80 -59l-222 149l-227 -151zM0 0v1454h143v-1454h-143z" />
<glyph unicode="&#xcf;" d="M-207 1772q0 42 31 72t72 30t72.5 -30t31.5 -72t-32 -73.5t-72 -31.5t-71.5 31.5t-31.5 73.5zM0 0v1454h143v-1454h-143zM209 1772q0 42 31 72t71 30q41 0 73 -30t32 -72t-32.5 -73.5t-72.5 -31.5t-71 31.5t-31 73.5z" />
<glyph unicode="&#xd0;" horiz-adv-x="1372" d="M-63 655v131h178v666h456q158 0 290 -68.5t190 -185.5q112 -201 112 -448q-1 -140 -18 -249.5t-60 -205.5t-112 -159.5t-177 -99.5t-251 -36h-430v655h-178zM262 154h277q73 0 129.5 9t113.5 32t97.5 66t72.5 106.5t48 159t16 218.5q0 102 -17.5 186t-46 142t-68.5 102 t-81 69.5t-88.5 41.5t-85.5 21.5t-76 5.5h-291v-527h307v-131h-307v-501z" />
<glyph unicode="&#xd1;" horiz-adv-x="1392" d="M0 0v1454h184l772 -1249v1249h142v-1454h-183l-774 1255v-1255h-141zM199 1624q14 73 78.5 127.5t154.5 54.5q58 0 106.5 -14t74 -31t52.5 -31t48 -14q46 0 78 18t40 44l97 -41q0 -17 -12.5 -42.5t-35.5 -52.5t-64.5 -46t-90.5 -19q-53 0 -105 22.5t-98 45t-84 22.5 q-112 0 -145 -78z" />
<glyph unicode="&#xd2;" horiz-adv-x="1353" d="M-18 641v170q0 309 153.5 485.5t405.5 176.5q250 0 405.5 -180t155.5 -482v-170q0 -305 -155 -481t-406 -176q-120 0 -222 43t-177 124.5t-117.5 207t-42.5 282.5zM121 641q0 -244 111 -379t309 -135q196 0 308 136.5t112 377.5v170q0 239 -113 379.5t-307 140.5 q-197 0 -308.5 -139t-111.5 -381v-170zM231 1866l138 121l266 -375h-141z" />
<glyph unicode="&#xd3;" horiz-adv-x="1353" d="M-18 641v170q0 309 153.5 485.5t405.5 176.5q250 0 405.5 -180t155.5 -482v-170q0 -305 -155 -481t-406 -176q-120 0 -222 43t-177 124.5t-117.5 207t-42.5 282.5zM121 641q0 -244 111 -379t309 -135q196 0 308 136.5t112 377.5v170q0 239 -113 379.5t-307 140.5 q-197 0 -308.5 -139t-111.5 -381v-170zM477 1638l236 369l143 -135l-242 -234h-137z" />
<glyph unicode="&#xd4;" horiz-adv-x="1353" d="M-18 641v170q0 309 153.5 485.5t405.5 176.5q250 0 405.5 -180t155.5 -482v-170q0 -305 -155 -481t-406 -176q-120 0 -222 43t-177 124.5t-117.5 207t-42.5 282.5zM121 641q0 -244 111 -379t309 -135q196 0 308 136.5t112 377.5v170q0 239 -113 379.5t-307 140.5 q-197 0 -308.5 -139t-111.5 -381v-170zM242 1706l223 227h160l221 -227l-80 -59l-221 149l-228 -151z" />
<glyph unicode="&#xd5;" horiz-adv-x="1353" d="M-18 641v170q0 309 153.5 485.5t405.5 176.5q250 0 405.5 -180t155.5 -482v-170q0 -305 -155 -481t-406 -176q-120 0 -222 43t-177 124.5t-117.5 207t-42.5 282.5zM121 641q0 -244 111 -379t309 -135q196 0 308 136.5t112 377.5v170q0 239 -113 379.5t-307 140.5 q-197 0 -308.5 -139t-111.5 -381v-170zM180 1634q14 73 79 128t155 55q58 0 106.5 -14t73.5 -31.5t52 -31.5t48 -14q46 0 78.5 18t40.5 44l96 -41q0 -17 -12.5 -42.5t-35 -52.5t-64 -46t-90.5 -19q-53 0 -105 22.5t-98 45t-84 22.5q-113 0 -146 -78z" />
<glyph unicode="&#xd6;" horiz-adv-x="1353" d="M-18 641v170q0 309 153.5 485.5t405.5 176.5q250 0 405.5 -180t155.5 -482v-170q0 -305 -155 -481t-406 -176q-120 0 -222 43t-177 124.5t-117.5 207t-42.5 282.5zM121 641q0 -244 111 -379t309 -135q196 0 308 136.5t112 377.5v170q0 239 -113 379.5t-307 140.5 q-197 0 -308.5 -139t-111.5 -381v-170zM233 1694q0 42 31 72t72 30t72.5 -30t31.5 -72t-32 -73.5t-72 -31.5t-71.5 31.5t-31.5 73.5zM649 1694q0 42 31 72t72 30t72.5 -30t31.5 -72t-32 -73.5t-72 -31.5t-71.5 31.5t-31.5 73.5z" />
<glyph unicode="&#xd7;" horiz-adv-x="915" d="M-23 897l101 102l260 -260l258 258l100 -100l-256 -258l256 -258l-100 -102l-258 258l-258 -258l-100 102l258 258z" />
<glyph unicode="&#xd8;" horiz-adv-x="1323" d="M-23 649v170q0 308 154.5 484t405.5 176q161 0 294 -82l68 119l117 -66l-80 -143q78 -86 120 -211t42 -277v-170q0 -305 -155.5 -482t-405.5 -177q-162 0 -295 82l-64 -117l-119 65l80 140q-162 176 -162 489zM119 649q0 -222 94 -358l549 983q-97 65 -225 65 q-197 0 -307.5 -138.5t-110.5 -381.5v-170zM311 197q100 -64 226 -64q195 0 307 137.5t112 378.5v170q0 214 -94 357z" />
<glyph unicode="&#xd9;" horiz-adv-x="1351" d="M0 612v842h141v-842q0 -244 95 -367.5t272 -123.5q180 0 272 123.5t92 367.5v842h144v-842q0 -315 -128 -475t-380 -160q-245 0 -376.5 158t-131.5 477zM209 1866l137 121l266 -375h-141z" />
<glyph unicode="&#xda;" horiz-adv-x="1351" d="M0 612v842h141v-842q0 -244 95 -367.5t272 -123.5q180 0 272 123.5t92 367.5v842h144v-842q0 -315 -128 -475t-380 -160q-245 0 -376.5 158t-131.5 477zM475 1638l236 369l143 -135l-242 -234h-137z" />
<glyph unicode="&#xdb;" horiz-adv-x="1351" d="M0 612v842h141v-842q0 -244 95 -367.5t272 -123.5q180 0 272 123.5t92 367.5v842h144v-842q0 -315 -128 -475t-380 -160q-245 0 -376.5 158t-131.5 477zM240 1706l223 227h160l221 -227l-80 -59l-221 149l-228 -151z" />
<glyph unicode="&#xdc;" horiz-adv-x="1351" d="M0 612v842h141v-842q0 -244 95 -367.5t272 -123.5q180 0 272 123.5t92 367.5v842h144v-842q0 -315 -128 -475t-380 -160q-245 0 -376.5 158t-131.5 477zM211 1726q0 42 31 72.5t71 30.5q41 0 73 -30.5t32 -72.5t-32 -73t-73 -31q-40 0 -71 31t-31 73zM627 1726 q0 42 31 72.5t71 30.5q41 0 73 -30.5t32 -72.5t-32 -73t-73 -31q-40 0 -71 31t-31 73z" />
<glyph unicode="&#xdd;" horiz-adv-x="1288" d="M-49 1454h162l399 -717l397 717h164l-489 -879v-575h-144v575zM387 1544l236 369l143 -135l-242 -234h-137z" />
<glyph unicode="&#xde;" horiz-adv-x="1187" d="M0 0v1454h143v-289h369q205 0 342 -123.5t137 -316.5t-137 -317.5t-342 -124.5h-369v-283h-143zM143 428h369q143 0 237.5 91t94.5 206q0 114 -94.5 204.5t-237.5 90.5h-369v-592z" />
<glyph unicode="&#xdf;" horiz-adv-x="1075" d="M0 0v1051q0 112 42.5 205.5t129 151.5t201.5 58q174 0 281.5 -111.5t107.5 -279.5q0 -82 -42 -172.5t-114 -111.5q101 -12 174.5 -109t73.5 -229v-54q0 -191 -107.5 -295t-306.5 -104h-92v145h92q136 0 199 62t63 192v54q0 39 -5 68t-21.5 60.5t-45 52.5t-79.5 37.5 t-121 22.5q-94 6 -94 78q0 69 76 82q59 10 100 37t59.5 62t25.5 64t7 58q0 115 -67 177.5t-164 62.5q-92 0 -159 -73t-67 -191v-1051h-147z" />
<glyph unicode="&#xe0;" horiz-adv-x="1107" d="M-16 254q0 -107 90 -188.5t223 -81.5h47q107 0 197 36.5t131 98.5v-119h141v668q0 89 -27 157t-67 105.5t-95 60.5t-100.5 30t-93.5 7q-108 0 -208.5 -30.5t-198.5 -118.5l90 -113q23 23 43 38.5t57.5 37t91.5 32.5t121 11q74 0 126.5 -20.5t76.5 -53.5t33.5 -62t9.5 -59 v-76h-246q-211 0 -326.5 -85.5t-115.5 -237.5v-37zM88 1419l137 121l267 -375h-142zM115 272v13q0 101 78 146.5t243 45.5h236v-94q0 -114 -90.5 -190t-245.5 -76h-27q-95 0 -144.5 47t-49.5 108z" />
<glyph unicode="&#xe1;" horiz-adv-x="1107" d="M-16 254v37q0 152 115.5 237.5t326.5 85.5h246v76q0 30 -9.5 59t-33.5 62t-76.5 53.5t-126.5 20.5q-67 0 -121 -11t-91.5 -32.5t-57.5 -37t-43 -38.5l-90 113q98 88 198.5 118.5t208.5 30.5q48 0 93.5 -7t100.5 -30t95 -60.5t67 -105.5t27 -157q-2 -631 0 -668h-141v119 q-41 -62 -131 -98.5t-197 -36.5h-47q-133 0 -223 81.5t-90 188.5zM115 272q0 -61 49.5 -108t144.5 -47h27q155 0 245.5 76t90.5 190v94h-236q-165 0 -243 -45.5t-78 -146.5v-13zM354 1192l236 369l143 -136l-241 -233h-138z" />
<glyph unicode="&#xe2;" horiz-adv-x="1107" d="M-16 254v37q0 152 115.5 237.5t326.5 85.5h246v76q0 30 -9.5 59t-33.5 62t-76.5 53.5t-126.5 20.5q-67 0 -121 -11t-91.5 -32.5t-57.5 -37t-43 -38.5l-90 113q98 88 198.5 118.5t208.5 30.5q48 0 93.5 -7t100.5 -30t95 -60.5t67 -105.5t27 -157q-2 -631 0 -668h-141v119 q-41 -62 -131 -98.5t-197 -36.5h-47q-133 0 -223 81.5t-90 188.5zM115 272q0 -61 49.5 -108t144.5 -47h27q155 0 245.5 76t90.5 190v94h-236q-165 0 -243 -45.5t-78 -146.5v-13zM119 1260l223 227h160l221 -227l-80 -60l-221 150l-227 -152z" />
<glyph unicode="&#xe3;" horiz-adv-x="1107" d="M-16 254v37q0 152 115.5 237.5t326.5 85.5h246v76q0 30 -9.5 59t-33.5 62t-76.5 53.5t-126.5 20.5q-67 0 -121 -11t-91.5 -32.5t-57.5 -37t-43 -38.5l-90 113q98 88 198.5 118.5t208.5 30.5q48 0 93.5 -7t100.5 -30t95 -60.5t67 -105.5t27 -157q-2 -631 0 -668h-141v119 q-41 -62 -131 -98.5t-197 -36.5h-47q-133 0 -223 81.5t-90 188.5zM47 1274q14 73 79 127.5t155 54.5q58 0 106.5 -14t73.5 -31t52 -31t48 -14q46 0 78.5 17.5t40.5 43.5l96 -41q0 -17 -12.5 -42.5t-35.5 -52t-64.5 -45.5t-90.5 -19q-53 0 -104.5 22.5t-97.5 45t-84 22.5 q-113 0 -146 -78zM115 272q0 -61 49.5 -108t144.5 -47h27q155 0 245.5 76t90.5 190v94h-236q-165 0 -243 -45.5t-78 -146.5v-13z" />
<glyph unicode="&#xe4;" horiz-adv-x="1107" d="M-16 254v37q0 152 115.5 237.5t326.5 85.5h246v76q0 30 -9.5 59t-33.5 62t-76.5 53.5t-126.5 20.5q-67 0 -121 -11t-91.5 -32.5t-57.5 -37t-43 -38.5l-90 113q98 88 198.5 118.5t208.5 30.5q48 0 93.5 -7t100.5 -30t95 -60.5t67 -105.5t27 -157q-2 -631 0 -668h-141v119 q-41 -62 -131 -98.5t-197 -36.5h-47q-133 0 -223 81.5t-90 188.5zM111 1325q0 42 31 72t71 30q41 0 72.5 -30t31.5 -72t-32 -73t-72 -31t-71 31t-31 73zM115 272q0 -61 49.5 -108t144.5 -47h27q155 0 245.5 76t90.5 190v94h-236q-165 0 -243 -45.5t-78 -146.5v-13zM526 1325 q0 42 31 72t72 30t72.5 -30t31.5 -72t-32 -73t-72 -31t-71.5 31t-31.5 73z" />
<glyph unicode="&#xe5;" horiz-adv-x="1107" d="M-16 254v37q0 152 115.5 237.5t326.5 85.5h246v76q0 30 -9.5 59t-33.5 62t-76.5 53.5t-126.5 20.5q-67 0 -121 -11t-91.5 -32.5t-57.5 -37t-43 -38.5l-90 113q98 88 198.5 118.5t208.5 30.5q48 0 93.5 -7t100.5 -30t95 -60.5t67 -105.5t27 -157q-2 -631 0 -668h-141v119 q-41 -62 -131 -98.5t-197 -36.5h-47q-133 0 -223 81.5t-90 188.5zM115 272q0 -61 49.5 -108t144.5 -47h27q155 0 245.5 76t90.5 190v94h-236q-165 0 -243 -45.5t-78 -146.5v-13zM217 1239q0 84 65 146.5t144 62.5t144 -62.5t65 -146.5t-65 -146.5t-144 -62.5t-144 62.5 t-65 146.5zM311 1235q0 -46 34 -80.5t81 -34.5t81 34.5t34 80.5q0 47 -34 81t-81 34t-81 -34t-34 -81z" />
<glyph unicode="&#xe6;" horiz-adv-x="1796" d="M-8 213q-23 232 158 315q75 32 186 48t352 16q0 35 -0.5 53.5t-2.5 48t-6.5 46t-13.5 40t-21.5 36t-31.5 27.5t-44 22.5t-59 12.5t-75 5q-208 0 -313 -115l-90 109q170 151 407 151q47 0 95 -9t99 -29.5t88.5 -61.5t49.5 -97q29 81 125 140t235 59q206 0 324.5 -144 t104.5 -431h-740q6 -147 92.5 -239.5t235.5 -92.5q227 0 299 141l113 -94q-66 -80 -133.5 -123t-184.5 -59q-7 -1 -20 -2.5t-52 -2.5t-76.5 2.5t-87 16t-90.5 33.5t-81 60t-64 91q-6 8 -10 25q-26 -41 -47.5 -68t-62 -61.5t-87 -55t-119 -35t-161.5 -14.5q-71 0 -127 22.5 t-89 58.5t-51.5 75.5t-23.5 79.5zM119 283q-4 -51 10 -86t40.5 -53t66.5 -24.5t83.5 -3t94.5 14.5q48 11 93.5 33t87.5 55.5t67.5 83.5t25.5 109v37q-132 0 -218.5 -4t-156.5 -14t-108.5 -29t-60 -47.5t-25.5 -71.5zM821 594h590q0 122 -57 199t-168 94q-94 15 -175.5 -11.5 t-135.5 -99.5t-54 -182z" />
<glyph unicode="&#xe7;" horiz-adv-x="1062" d="M-23 451v98q0 213 128 346t313 133q124 0 225.5 -66.5t157.5 -183.5l-129 -57q-37 77 -104 120.5t-154 43.5q-132 0 -212.5 -93t-80.5 -243v-98q0 -153 89 -243.5t204 -90.5q199 0 272 145l129 -57q-54 -108 -151.5 -164t-223.5 -61l6 -70q134 -38 175 -158 q15 -54 0 -110.5t-56 -92.5q-64 -55 -149 -55q-36 0 -74 14l-125 39l35 109l123 -43q6 -1 22 -4.5t25 -3.5q39 0 65 26q36 34 23 93q-8 34 -42 57.5t-128 52.5l-14 2l4 12v138q-148 31 -250.5 155.5t-102.5 309.5z" />
<glyph unicode="&#xe8;" horiz-adv-x="1130" d="M-20 453v98q0 217 126.5 349t315.5 132q186 0 312 -134.5t126 -346.5v-111h-737q6 -147 104.5 -235t216.5 -88q107 0 176 25.5t119 101.5l111 -86q-74 -101 -172.5 -142t-233.5 -41q-82 0 -163.5 33t-149 92t-109.5 151.5t-42 201.5zM123 571h596q-3 142 -86 230t-211 88 q-133 0 -214.5 -85.5t-84.5 -232.5zM160 1440l137 121l266 -375h-141z" />
<glyph unicode="&#xe9;" horiz-adv-x="1130" d="M-20 453v98q0 217 126.5 349t315.5 132q186 0 312 -134.5t126 -346.5v-111h-737q6 -147 104.5 -235t216.5 -88q107 0 176 25.5t119 101.5l111 -86q-74 -101 -172.5 -142t-233.5 -41q-82 0 -163.5 33t-149 92t-109.5 151.5t-42 201.5zM123 571h596q-3 142 -86 230t-211 88 q-133 0 -214.5 -85.5t-84.5 -232.5zM365 1192l235 369l143 -136l-241 -233h-137z" />
<glyph unicode="&#xea;" horiz-adv-x="1130" d="M-20 453v98q0 217 126.5 349t315.5 132q186 0 312 -134.5t126 -346.5v-111h-737q6 -147 104.5 -235t216.5 -88q107 0 176 25.5t119 101.5l111 -86q-74 -101 -172.5 -142t-233.5 -41q-82 0 -163.5 33t-149 92t-109.5 151.5t-42 201.5zM123 571h596q-3 142 -86 230t-211 88 q-133 0 -214.5 -85.5t-84.5 -232.5zM129 1260l223 227h160l221 -227l-80 -60l-221 150l-227 -152z" />
<glyph unicode="&#xeb;" horiz-adv-x="1130" d="M-20 453v98q0 217 126.5 349t315.5 132q186 0 312 -134.5t126 -346.5v-111h-737q6 -147 104.5 -235t216.5 -88q107 0 176 25.5t119 101.5l111 -86q-74 -101 -172.5 -142t-233.5 -41q-82 0 -163.5 33t-149 92t-109.5 151.5t-42 201.5zM123 571h596q-3 142 -86 230t-211 88 q-133 0 -214.5 -85.5t-84.5 -232.5zM123 1325q0 42 31 72t71 30q41 0 73 -30t32 -72t-32 -73t-73 -31q-40 0 -71 31t-31 73zM539 1325q0 42 31 72t71 30q41 0 72.5 -30t31.5 -72t-32 -73t-72 -31t-71 31t-31 73z" />
<glyph unicode="&#xec;" d="M-246 1419l137 121l267 -375h-142zM0 -2h156v1010h-156v-1010z" />
<glyph unicode="&#xed;" horiz-adv-x="444" d="M-4 1192l235 369l144 -136l-242 -233h-137zM0 -2v1010h156v-1010h-156z" />
<glyph unicode="&#xee;" d="M-111 1260l121 227h160l119 -227l-101 -74l-98 149l-104 -151zM16 -2v1010h156v-1010h-156z" />
<glyph unicode="&#xef;" d="M-207 1325q0 42 31 72t72 30t72.5 -30t31.5 -72t-32 -73t-72 -31t-71.5 31t-31.5 73zM0 -2v1010h156v-1010h-156zM209 1325q0 42 31 72t71 30q41 0 73 -30t32 -72t-32 -73t-73 -31q-40 0 -71 31t-31 73z" />
<glyph unicode="&#xf0;" horiz-adv-x="1095" d="M-23 453v96q0 214 125 344.5t310 130.5q132 0 235 -68q-55 163 -153 275l-111 -111l-64 62l115 112q-61 58 -121 101l80 118q93 -68 144 -116l100 102l59 -63l-100 -101q129 -146 190.5 -335.5t63.5 -440.5q0 -1 1 -4.5t1 -5.5v-96q0 -112 -39 -204.5t-102.5 -149.5 t-140.5 -88t-158 -31q-80 0 -157 32.5t-139.5 91t-100.5 150t-38 199.5zM117 453q0 -78 26 -142.5t68.5 -105.5t94.5 -63.5t106 -22.5q37 0 76.5 11t79.5 37t71 63.5t50.5 95t19.5 127.5v96q0 145 -84.5 240.5t-212.5 95.5q-130 0 -212.5 -94t-82.5 -242v-96z" />
<glyph unicode="&#xf1;" horiz-adv-x="1120" d="M0 0v1008h141v-134q25 72 112.5 116t180.5 44q194 0 303 -130.5t109 -350.5v-553h-144v553q0 155 -70 250.5t-204 95.5q-131 0 -209 -96t-78 -250v-553h-141zM49 1280q14 73 79 127.5t155 54.5q58 0 106.5 -14t73.5 -31t52 -31t48 -14q46 0 78.5 18t40.5 44l96 -41 q0 -17 -12.5 -42.5t-35.5 -52.5t-64.5 -46t-90.5 -19q-53 0 -104.5 22.5t-97.5 45t-84 22.5q-113 0 -146 -78z" />
<glyph unicode="&#xf2;" horiz-adv-x="1140" d="M-14 455v98q0 215 125 346t311 131q89 0 169.5 -35t139.5 -96.5t94 -151.5t35 -194v-98q0 -112 -38.5 -204.5t-101.5 -149.5t-140 -88t-158 -31t-158 32.5t-139.5 90.5t-100.5 149.5t-38 200.5zM104 1419l138 121l266 -375h-141zM125 455q0 -152 90.5 -243t206.5 -91 q48 0 97 19t94.5 56.5t74.5 105t29 153.5v98q0 145 -84 240.5t-211 95.5q-132 0 -214.5 -93.5t-82.5 -242.5v-98z" />
<glyph unicode="&#xf3;" horiz-adv-x="1140" d="M-14 455v98q0 215 125 346t311 131q89 0 169.5 -35t139.5 -96.5t94 -151.5t35 -194v-98q0 -112 -38.5 -204.5t-101.5 -149.5t-140 -88t-158 -31t-158 32.5t-139.5 90.5t-100.5 149.5t-38 200.5zM125 455q0 -152 90.5 -243t206.5 -91q48 0 97 19t94.5 56.5t74.5 105 t29 153.5v98q0 145 -84 240.5t-211 95.5q-132 0 -214.5 -93.5t-82.5 -242.5v-98zM371 1192l235 369l144 -136l-242 -233h-137z" />
<glyph unicode="&#xf4;" horiz-adv-x="1140" d="M-14 455v98q0 215 125 346t311 131q89 0 169.5 -35t139.5 -96.5t94 -151.5t35 -194v-98q0 -112 -38.5 -204.5t-101.5 -149.5t-140 -88t-158 -31t-158 32.5t-139.5 90.5t-100.5 149.5t-38 200.5zM125 455q0 -152 90.5 -243t206.5 -91q48 0 97 19t94.5 56.5t74.5 105 t29 153.5v98q0 145 -84 240.5t-211 95.5q-132 0 -214.5 -93.5t-82.5 -242.5v-98zM135 1260l223 227h160l221 -227l-80 -60l-221 150l-227 -152z" />
<glyph unicode="&#xf5;" horiz-adv-x="1140" d="M-14 455v98q0 215 125 346t311 131q89 0 169.5 -35t139.5 -96.5t94 -151.5t35 -194v-98q0 -112 -38.5 -204.5t-101.5 -149.5t-140 -88t-158 -31t-158 32.5t-139.5 90.5t-100.5 149.5t-38 200.5zM88 1214q14 73 79 128t155 55q58 0 106.5 -14t73.5 -31t52 -31t48 -14 q46 0 78.5 17.5t40.5 43.5l96 -41q0 -17 -12.5 -42.5t-35.5 -52.5t-64.5 -46t-90.5 -19q-53 0 -104.5 22.5t-97.5 45t-84 22.5q-113 0 -146 -77zM125 455q0 -152 90.5 -243t206.5 -91q48 0 97 19t94.5 56.5t74.5 105t29 153.5v98q0 145 -84 240.5t-211 95.5 q-132 0 -214.5 -93.5t-82.5 -242.5v-98z" />
<glyph unicode="&#xf6;" horiz-adv-x="1140" d="M-14 455v98q0 215 125 346t311 131q89 0 169.5 -35t139.5 -96.5t94 -151.5t35 -194v-98q0 -112 -38.5 -204.5t-101.5 -149.5t-140 -88t-158 -31t-158 32.5t-139.5 90.5t-100.5 149.5t-38 200.5zM125 455q0 -152 90.5 -243t206.5 -91q48 0 97 19t94.5 56.5t74.5 105 t29 153.5v98q0 145 -84 240.5t-211 95.5q-132 0 -214.5 -93.5t-82.5 -242.5v-98zM127 1325q0 42 31 72t71 30q41 0 73 -30t32 -72t-32 -73t-73 -31q-40 0 -71 31t-31 73zM543 1325q0 42 31 72t71 30q41 0 73 -30t32 -72t-32 -73t-73 -31q-40 0 -71 31t-31 73z" />
<glyph unicode="&#xf7;" horiz-adv-x="1171" d="M16 608v142h975v-142h-975zM379 317q0 48 36 82.5t81 34.5q46 0 82 -34.5t36 -82.5t-36.5 -83t-81.5 -35t-81 35t-36 83zM379 1026q0 48 36 82.5t81 34.5q46 0 82 -34.5t36 -82.5t-36.5 -83.5t-81.5 -35.5t-81 35.5t-36 83.5z" />
<glyph unicode="&#xf8;" horiz-adv-x="1085" d="M-18 455v98q0 214 125.5 344.5t310.5 130.5q107 0 194 -43l68 123l117 -68l-76 -137q64 -63 100.5 -153t36.5 -197v-98q0 -113 -39 -205.5t-102.5 -150t-140.5 -88.5t-158 -31q-100 0 -189 47l-69 -125l-117 65l76 137q-137 134 -137 351zM121 455q0 -130 72 -222 l348 627q-60 29 -123 29q-132 0 -214.5 -93.5t-82.5 -242.5v-98zM297 147q64 -28 121 -28q37 0 76.5 11.5t79.5 37.5t71 64t50.5 95.5t19.5 127.5v98q0 124 -70 217z" />
<glyph unicode="&#xf9;" horiz-adv-x="1144" d="M0 459v549h143v-549q0 -154 70 -249t205 -95q131 0 210 96t79 248v549h141v-2v-555v-451h-141v139q-18 -49 -67 -87t-109 -56.5t-119 -18.5q-194 0 -303 131.5t-109 350.5zM106 1419l138 121l266 -375h-141z" />
<glyph unicode="&#xfa;" horiz-adv-x="1144" d="M0 459v549h143v-549q0 -154 70 -249t205 -95q131 0 210 96t79 248v549h141v-2v-555v-451h-141v139q-18 -49 -67 -87t-109 -56.5t-119 -18.5q-194 0 -303 131.5t-109 350.5zM373 1192l235 369l144 -136l-242 -233h-137z" />
<glyph unicode="&#xfb;" horiz-adv-x="1144" d="M0 459v549h143v-549q0 -154 70 -249t205 -95q131 0 210 96t79 248v549h141v-2v-555v-451h-141v139q-18 -49 -67 -87t-109 -56.5t-119 -18.5q-194 0 -303 131.5t-109 350.5zM137 1260l223 227h160l221 -227l-79 -60l-222 150l-227 -152z" />
<glyph unicode="&#xfc;" horiz-adv-x="1144" d="M0 459v549h143v-549q0 -154 70 -249t205 -95q131 0 210 96t79 248v549h141v-2v-555v-451h-141v139q-18 -49 -67 -87t-109 -56.5t-119 -18.5q-194 0 -303 131.5t-109 350.5zM129 1325q0 42 31 72t71 30q41 0 73 -30t32 -72t-32 -73t-73 -31q-40 0 -71 31t-31 73zM545 1325 q0 42 31 72t71 30q41 0 73 -30t32 -72t-32 -73t-73 -31q-40 0 -71 31t-31 73z" />
<glyph unicode="&#xfd;" horiz-adv-x="1105" d="M-27 1008h158l311 -811l310 811h159q-424 -1096 -469 -1209q-34 -77 -77 -123t-96.5 -61t-109.5 -11t-128 25l41 138q54 -16 92.5 -17.5t61.5 3.5t43 31t28.5 44t26.5 65q7 16 10 25l28 78zM307 1147l236 369l143 -136l-242 -233h-137z" />
<glyph unicode="&#xfe;" horiz-adv-x="1054" d="M0 -434v1888h141v-569q47 71 128.5 109t162.5 38q79 0 155.5 -32.5t138 -91t99 -150.5t37.5 -201v-102q0 -214 -124 -344.5t-306 -130.5q-57 0 -114 18t-106 57t-71 92v-581h-141zM135 455q0 -146 82.5 -239t210.5 -93q130 0 209.5 91.5t79.5 240.5v102q0 79 -25.5 144 t-67.5 105.5t-93 62.5t-103 22q-118 0 -205.5 -89.5t-87.5 -244.5v-102z" />
<glyph unicode="&#xff;" horiz-adv-x="1105" d="M-27 1008h158l311 -811l310 811h159q-424 -1096 -469 -1209q-34 -77 -77 -123t-96.5 -61t-109.5 -11t-128 25l41 138q54 -16 92.5 -17.5t61.5 3.5t43 31t28.5 44t26.5 65q7 16 10 25l28 78zM111 1325q0 42 31 72t71 30q41 0 72.5 -30t31.5 -72t-32 -73t-72 -31t-71 31 t-31 73zM526 1325q0 42 31 72t72 30t72.5 -30t31.5 -72t-32 -73t-72 -31t-71.5 31t-31.5 73z" />
<glyph unicode="&#x152;" horiz-adv-x="2086" d="M-20 643v172q0 306 155 484t408 178q136 0 250 -60t188 -168v207h895v-147h-756v-494h617v-147h-617v-518h785v-150h-924v209q-73 -107 -187 -165t-251 -58q-121 0 -223.5 43.5t-178.5 125t-118.5 207t-42.5 281.5zM123 643q0 -244 110 -379t310 -135q193 0 306.5 137 t113.5 377v172q0 236 -114 377t-306 141q-199 0 -309.5 -137.5t-110.5 -380.5v-172z" />
<glyph unicode="&#x153;" horiz-adv-x="1865" d="M-25 451v98q0 215 126.5 347t312.5 132q119 0 230 -67t138 -168q17 67 77 122.5t140 85t160 29.5q185 0 311.5 -135t126.5 -348v-111h-739q5 -99 56 -175t121.5 -112t144.5 -36q108 0 177 25.5t118 99.5l112 -86q-77 -100 -174.5 -141.5t-232.5 -41.5q-73 0 -152.5 29.5 t-147 89t-92.5 133.5q-23 -74 -86.5 -132t-139 -86t-148.5 -28q-81 0 -158.5 32.5t-140.5 91t-101.5 151t-38.5 201.5zM115 451q0 -152 91.5 -244t207.5 -92q37 0 76.5 11.5t79 37.5t70 64t50 95.5t19.5 127.5v98q0 144 -84.5 240t-210.5 96q-133 0 -216 -93t-83 -243v-98z M858 567h596q-1 142 -84 230t-211 88q-134 0 -215.5 -85t-85.5 -233z" />
<glyph unicode="&#x178;" horiz-adv-x="1288" d="M-49 1454h162l399 -717l397 717h164l-489 -879v-575h-144v575zM207 1712q0 42 31 72.5t71 30.5q41 0 73 -30.5t32 -72.5t-32 -73t-73 -31q-40 0 -71 31t-31 73zM623 1712q0 42 31 72.5t71 30.5q41 0 72.5 -30.5t31.5 -72.5t-32 -73t-72 -31t-71 31t-31 73z" />
<glyph unicode="&#x2c6;" horiz-adv-x="663" d="M-111 1260l224 227h159l222 -227l-80 -60l-221 150l-228 -152z" />
<glyph unicode="&#x2dc;" horiz-adv-x="632" d="M-84 1184q14 73 79 127.5t155 54.5q58 0 106.5 -14t73.5 -31t52 -31t48 -14q46 0 78.5 17.5t40.5 43.5l96 -41q0 -17 -12.5 -42.5t-35.5 -52t-64.5 -45.5t-90.5 -19q-53 0 -104.5 22.5t-97.5 45t-84 22.5q-113 0 -146 -78z" />
<glyph unicode="&#x2000;" horiz-adv-x="1003" />
<glyph unicode="&#x2001;" horiz-adv-x="2007" />
<glyph unicode="&#x2002;" horiz-adv-x="1003" />
<glyph unicode="&#x2003;" horiz-adv-x="2007" />
<glyph unicode="&#x2004;" horiz-adv-x="669" />
<glyph unicode="&#x2005;" horiz-adv-x="501" />
<glyph unicode="&#x2006;" horiz-adv-x="334" />
<glyph unicode="&#x2007;" horiz-adv-x="334" />
<glyph unicode="&#x2008;" horiz-adv-x="250" />
<glyph unicode="&#x2009;" horiz-adv-x="401" />
<glyph unicode="&#x200a;" horiz-adv-x="111" />
<glyph unicode="&#x2010;" horiz-adv-x="1067" d="M0 522v131h791v-131h-791z" />
<glyph unicode="&#x2011;" horiz-adv-x="1067" d="M0 522v131h791v-131h-791z" />
<glyph unicode="&#x2012;" horiz-adv-x="1067" d="M0 522v131h791v-131h-791z" />
<glyph unicode="&#x2013;" horiz-adv-x="1093" d="M0 510v141h975v-141h-975z" />
<glyph unicode="&#x2014;" horiz-adv-x="1538" d="M0 510v143h1241v-143h-1241z" />
<glyph unicode="&#x2018;" horiz-adv-x="409" d="M0 1137q0 15 2 27.5t5 19.5t8.5 21t9.5 24l98 225h65v-317q0 -48 -24 -78.5t-66 -30.5q-41 0 -69.5 31.5t-28.5 77.5z" />
<glyph unicode="&#x2019;" horiz-adv-x="409" d="M0 1057v317q0 48 24 78.5t66 30.5q41 0 69.5 -31.5t28.5 -77.5q0 -58 -18 -108l-64 -209h-106z" />
<glyph unicode="&#x201a;" horiz-adv-x="452" d="M0 -74q0 15 2 27.5t5 19.5t8.5 21t9.5 24l98 226h65v-318q0 -48 -24 -78t-66 -30q-41 0 -69.5 31t-28.5 77z" />
<glyph unicode="&#x201c;" horiz-adv-x="753" d="M0 1137q0 15 2 27.5t5 19.5t8.5 21t9.5 24l98 225h65v-317q0 -48 -24 -78.5t-66 -30.5q-41 0 -69.5 31.5t-28.5 77.5zM330 1137q0 15 2 27.5t4.5 19.5t8 21t9.5 24l99 225h65v-317q0 -48 -24 -78.5t-66 -30.5q-41 0 -69.5 31.5t-28.5 77.5z" />
<glyph unicode="&#x201d;" horiz-adv-x="778" d="M0 1069v317q0 48 24 78.5t66 30.5q41 0 69.5 -31.5t28.5 -77.5q0 -15 -2 -28.5t-4 -20t-8.5 -23t-9.5 -24.5l-98 -221h-66zM330 1069v317q0 48 24 78.5t66 30.5q41 0 69.5 -31.5t28.5 -77.5q0 -15 -2 -28.5t-4 -20t-8.5 -23t-9.5 -24.5l-99 -221h-65z" />
<glyph unicode="&#x201e;" horiz-adv-x="759" d="M0 -74q0 15 2 27.5t5 19.5t8.5 21t9.5 24l98 226h65v-318q0 -48 -24 -78t-66 -30q-41 0 -69.5 31t-28.5 77zM342 -74q0 15 2 27.5t5 19.5t8.5 21t9.5 24l98 226h65v-318q0 -48 -24 -78t-66 -30q-41 0 -69.5 31t-28.5 77z" />
<glyph unicode="&#x2022;" horiz-adv-x="610" d="M0 776q0 66 51.5 116t114.5 50q62 0 112 -50t50 -116t-49.5 -114t-112.5 -48t-114.5 48t-51.5 114z" />
<glyph unicode="&#x2026;" horiz-adv-x="1239" d="M-16 102q0 48 35.5 82.5t80.5 34.5q46 0 82.5 -34.5t36.5 -82.5t-36.5 -83t-82.5 -35q-45 0 -80.5 35t-35.5 83zM416 102q0 48 35.5 82.5t80.5 34.5q46 0 82.5 -34.5t36.5 -82.5t-36.5 -83t-82.5 -35q-45 0 -80.5 35t-35.5 83zM831 102q0 48 36 82.5t81 34.5 q46 0 82.5 -34.5t36.5 -82.5t-36.5 -83t-82.5 -35q-45 0 -81 35t-36 83z" />
<glyph unicode="&#x202f;" horiz-adv-x="401" />
<glyph unicode="&#x2039;" horiz-adv-x="768" d="M-25 510v90l433 432l90 -92l-383 -385l383 -381l-90 -94z" />
<glyph unicode="&#x203a;" horiz-adv-x="755" d="M14 174l383 381l-383 385l90 92l433 -432v-90l-433 -430z" />
<glyph unicode="&#x205f;" horiz-adv-x="501" />
<glyph unicode="&#x20ac;" horiz-adv-x="1454" d="M-104 514v2l53 133h166q0 13 -1 42t-1 42q0 25 2 37h-209l55 137h166q43 261 216.5 416t451.5 154q287 -2 454 -195l-57 -127q-85 82 -178.5 126t-216.5 44q-204 1 -331.5 -113t-170.5 -305h795l-54 -137h-757v-37q0 -57 2 -84h700l-53 -135h-623q39 -172 163 -278.5 t316 -106.5q104 0 186.5 25t180.5 79v-170q-145 -88 -379 -88q-259 0 -423 147t-216 392h-237z" />
<glyph unicode="&#x25fc;" horiz-adv-x="1003" d="M0 0v1004h1004v-1004h-1004z" />
</font>
</defs>
</svg>
